<?xml version="1.0" encoding="UTF-8" standalone="no"?>
<!DOCTYPE svg PUBLIC "-//W3C//DTD SVG 1.1//EN"
 "http://www.w3.org/Graphics/SVG/1.1/DTD/svg11.dtd">
<!-- Generated by graphviz version 2.38.0 (20140413.2041)
 -->
<!-- Title: %3 Pages: 1 -->
<svg width="342pt" height="1412pt"
 viewBox="0.00 0.00 341.88 1412.00" xmlns="http://www.w3.org/2000/svg" xmlns:xlink="http://www.w3.org/1999/xlink">
<g id="graph0" class="graph" transform="scale(1 1) rotate(0) translate(4 1408)">
<title>%3</title>
<polygon fill="white" stroke="none" points="-4,4 -4,-1408 337.885,-1408 337.885,4 -4,4"/>
<!-- src1 -->
<g id="node1" class="node"><title>src1</title>
<ellipse fill="none" stroke="red" cx="83.8426" cy="-1386" rx="51.9908" ry="18"/>
<text text-anchor="middle" x="83.8426" y="-1382.3" font-family="Times,serif" font-size="14.00">First source</text>
</g>
<!-- mbox -->
<g id="node4" class="node"><title>mbox</title>
<ellipse fill="none" stroke="black" cx="83.8426" cy="-1314" rx="83.6854" ry="18"/>
<text text-anchor="middle" x="83.8426" y="-1310.3" font-family="Times,serif" font-size="14.00">import&#45;source&#45;mbox</text>
</g>
<!-- src1&#45;&gt;mbox -->
<g id="edge1" class="edge"><title>src1&#45;&gt;mbox</title>
<path fill="none" stroke="black" d="M83.8426,-1367.7C83.8426,-1359.98 83.8426,-1350.71 83.8426,-1342.11"/>
<polygon fill="black" stroke="black" points="87.3427,-1342.1 83.8426,-1332.1 80.3427,-1342.1 87.3427,-1342.1"/>
</g>
<!-- src2 -->
<g id="node2" class="node"><title>src2</title>
<ellipse fill="none" stroke="red" cx="244.843" cy="-1170" rx="61.99" ry="18"/>
<text text-anchor="middle" x="244.843" y="-1166.3" font-family="Times,serif" font-size="14.00">Second source</text>
</g>
<!-- maildir -->
<g id="node5" class="node"><title>maildir</title>
<ellipse fill="none" stroke="black" cx="244.843" cy="-1098" rx="89.0842" ry="18"/>
<text text-anchor="middle" x="244.843" y="-1094.3" font-family="Times,serif" font-size="14.00">import&#45;source&#45;maildir</text>
</g>
<!-- src2&#45;&gt;maildir -->
<g id="edge2" class="edge"><title>src2&#45;&gt;maildir</title>
<path fill="none" stroke="black" d="M244.843,-1151.7C244.843,-1143.98 244.843,-1134.71 244.843,-1126.11"/>
<polygon fill="black" stroke="black" points="248.343,-1126.1 244.843,-1116.1 241.343,-1126.1 248.343,-1126.1"/>
</g>
<!-- dst1 -->
<g id="node3" class="node"><title>dst1</title>
<ellipse fill="none" stroke="blue" cx="96.8426" cy="-90" rx="38.9931" ry="18"/>
<text text-anchor="middle" x="96.8426" y="-86.3" font-family="Times,serif" font-size="14.00">Archive</text>
</g>
<!-- query -->
<g id="node24" class="node"><title>query</title>
<ellipse fill="none" stroke="black" cx="52.8426" cy="-18" rx="30.5947" ry="18"/>
<text text-anchor="middle" x="52.8426" y="-14.3" font-family="Times,serif" font-size="14.00">query</text>
</g>
<!-- dst1&#45;&gt;query -->
<g id="edge23" class="edge"><title>dst1&#45;&gt;query</title>
<path fill="none" stroke="black" d="M86.4152,-72.411C81.0999,-63.9549 74.5247,-53.4944 68.606,-44.0783"/>
<polygon fill="black" stroke="black" points="71.4801,-42.0737 63.1951,-35.4699 65.5536,-45.7989 71.4801,-42.0737"/>
</g>
<!-- browser -->
<g id="node25" class="node"><title>browser</title>
<ellipse fill="none" stroke="black" cx="140.843" cy="-18" rx="38.9931" ry="18"/>
<text text-anchor="middle" x="140.843" y="-14.3" font-family="Times,serif" font-size="14.00">browser</text>
</g>
<!-- dst1&#45;&gt;browser -->
<g id="edge24" class="edge"><title>dst1&#45;&gt;browser</title>
<path fill="none" stroke="black" d="M107.27,-72.411C112.585,-63.9549 119.16,-53.4944 125.079,-44.0783"/>
<polygon fill="black" stroke="black" points="128.131,-45.7989 130.49,-35.4699 122.205,-42.0737 128.131,-45.7989"/>
</g>
<!-- kill1 -->
<g id="node6" class="node"><title>kill1</title>
<ellipse fill="none" stroke="black" cx="83.8426" cy="-1242" rx="61.1893" ry="18"/>
<text text-anchor="middle" x="83.8426" y="-1238.3" font-family="Times,serif" font-size="14.00">kill&#45;duplicates</text>
</g>
<!-- mbox&#45;&gt;kill1 -->
<g id="edge3" class="edge"><title>mbox&#45;&gt;kill1</title>
<path fill="none" stroke="black" d="M83.8426,-1295.7C83.8426,-1287.98 83.8426,-1278.71 83.8426,-1270.11"/>
<polygon fill="black" stroke="black" points="87.3427,-1270.1 83.8426,-1260.1 80.3427,-1270.1 87.3427,-1270.1"/>
</g>
<!-- kill2 -->
<g id="node7" class="node"><title>kill2</title>
<ellipse fill="none" stroke="black" cx="241.843" cy="-1026" rx="61.1893" ry="18"/>
<text text-anchor="middle" x="241.843" y="-1022.3" font-family="Times,serif" font-size="14.00">kill&#45;duplicates</text>
</g>
<!-- maildir&#45;&gt;kill2 -->
<g id="edge4" class="edge"><title>maildir&#45;&gt;kill2</title>
<path fill="none" stroke="black" d="M244.101,-1079.7C243.77,-1071.98 243.373,-1062.71 243.005,-1054.11"/>
<polygon fill="black" stroke="black" points="246.501,-1053.95 242.576,-1044.1 239.507,-1054.25 246.501,-1053.95"/>
</g>
<!-- msgid4 -->
<g id="node11" class="node"><title>msgid4</title>
<ellipse fill="none" stroke="black" cx="83.8426" cy="-1170" rx="59.5901" ry="18"/>
<text text-anchor="middle" x="83.8426" y="-1166.3" font-family="Times,serif" font-size="14.00">extract&#45;msgid</text>
</g>
<!-- kill1&#45;&gt;msgid4 -->
<g id="edge5" class="edge"><title>kill1&#45;&gt;msgid4</title>
<path fill="none" stroke="black" d="M83.8426,-1223.7C83.8426,-1215.98 83.8426,-1206.71 83.8426,-1198.11"/>
<polygon fill="black" stroke="black" points="87.3427,-1198.1 83.8426,-1188.1 80.3427,-1198.1 87.3427,-1198.1"/>
</g>
<!-- msgid2 -->
<g id="node9" class="node"><title>msgid2</title>
<ellipse fill="none" stroke="black" cx="237.843" cy="-954" rx="59.5901" ry="18"/>
<text text-anchor="middle" x="237.843" y="-950.3" font-family="Times,serif" font-size="14.00">extract&#45;msgid</text>
</g>
<!-- kill2&#45;&gt;msgid2 -->
<g id="edge9" class="edge"><title>kill2&#45;&gt;msgid2</title>
<path fill="none" stroke="black" d="M240.854,-1007.7C240.413,-999.983 239.883,-990.712 239.392,-982.112"/>
<polygon fill="black" stroke="black" points="242.885,-981.888 238.82,-972.104 235.896,-982.288 242.885,-981.888"/>
</g>
<!-- msgid1 -->
<g id="node8" class="node"><title>msgid1</title>
<ellipse fill="none" stroke="black" cx="95.8426" cy="-954" rx="59.5901" ry="18"/>
<text text-anchor="middle" x="95.8426" y="-950.3" font-family="Times,serif" font-size="14.00">extract&#45;msgid</text>
</g>
<!-- merge -->
<g id="node14" class="node"><title>merge</title>
<ellipse fill="none" stroke="black" cx="166.843" cy="-882" rx="49.2915" ry="18"/>
<text text-anchor="middle" x="166.843" y="-878.3" font-family="Times,serif" font-size="14.00">merge&#45;raw</text>
</g>
<!-- msgid1&#45;&gt;merge -->
<g id="edge10" class="edge"><title>msgid1&#45;&gt;merge</title>
<path fill="none" stroke="black" d="M112.669,-936.411C121.688,-927.519 132.955,-916.411 142.874,-906.631"/>
<polygon fill="black" stroke="black" points="145.474,-908.983 150.137,-899.47 140.559,-903.998 145.474,-908.983"/>
</g>
<!-- msgid2&#45;&gt;merge -->
<g id="edge11" class="edge"><title>msgid2&#45;&gt;merge</title>
<path fill="none" stroke="black" d="M221.017,-936.411C211.998,-927.519 200.731,-916.411 190.811,-906.631"/>
<polygon fill="black" stroke="black" points="193.126,-903.998 183.548,-899.47 188.212,-908.983 193.126,-903.998"/>
</g>
<!-- msgid3 -->
<g id="node10" class="node"><title>msgid3</title>
<ellipse fill="none" stroke="black" cx="166.843" cy="-738" rx="59.5901" ry="18"/>
<text text-anchor="middle" x="166.843" y="-734.3" font-family="Times,serif" font-size="14.00">extract&#45;msgid</text>
</g>
<!-- msgmeta -->
<g id="node15" class="node"><title>msgmeta</title>
<ellipse fill="none" stroke="black" cx="166.843" cy="-666" rx="70.3881" ry="18"/>
<text text-anchor="middle" x="166.843" y="-662.3" font-family="Times,serif" font-size="14.00">extract&#45;msgmeta</text>
</g>
<!-- msgid3&#45;&gt;msgmeta -->
<g id="edge14" class="edge"><title>msgid3&#45;&gt;msgmeta</title>
<path fill="none" stroke="black" d="M166.843,-719.697C166.843,-711.983 166.843,-702.712 166.843,-694.112"/>
<polygon fill="black" stroke="black" points="170.343,-694.104 166.843,-684.104 163.343,-694.104 170.343,-694.104"/>
</g>
<!-- conn2 -->
<g id="node12" class="node"><title>conn2</title>
<ellipse fill="none" stroke="black" cx="83.8426" cy="-1098" rx="53.8905" ry="18"/>
<text text-anchor="middle" x="83.8426" y="-1094.3" font-family="Times,serif" font-size="14.00">connectivity</text>
</g>
<!-- msgid4&#45;&gt;conn2 -->
<g id="edge6" class="edge"><title>msgid4&#45;&gt;conn2</title>
<path fill="none" stroke="black" d="M83.8426,-1151.7C83.8426,-1143.98 83.8426,-1134.71 83.8426,-1126.11"/>
<polygon fill="black" stroke="black" points="87.3427,-1126.1 83.8426,-1116.1 80.3427,-1126.1 87.3427,-1126.1"/>
</g>
<!-- filter -->
<g id="node13" class="node"><title>filter</title>
<ellipse fill="none" stroke="black" cx="87.8426" cy="-1026" rx="72.5877" ry="18"/>
<text text-anchor="middle" x="87.8426" y="-1022.3" font-family="Times,serif" font-size="14.00">filter&#45;newsgroups</text>
</g>
<!-- conn2&#45;&gt;filter -->
<g id="edge7" class="edge"><title>conn2&#45;&gt;filter</title>
<path fill="none" stroke="black" d="M84.8313,-1079.7C85.2721,-1071.98 85.8018,-1062.71 86.2933,-1054.11"/>
<polygon fill="black" stroke="black" points="89.7889,-1054.29 86.8652,-1044.1 82.8003,-1053.89 89.7889,-1054.29"/>
</g>
<!-- filter&#45;&gt;msgid1 -->
<g id="edge8" class="edge"><title>filter&#45;&gt;msgid1</title>
<path fill="none" stroke="black" d="M89.8201,-1007.7C90.7017,-999.983 91.7611,-990.712 92.744,-982.112"/>
<polygon fill="black" stroke="black" points="96.2296,-982.437 93.8878,-972.104 89.2749,-981.642 96.2296,-982.437"/>
</g>
<!-- utf8ize -->
<g id="node17" class="node"><title>utf8ize</title>
<ellipse fill="none" stroke="black" cx="166.843" cy="-810" rx="35.194" ry="18"/>
<text text-anchor="middle" x="166.843" y="-806.3" font-family="Times,serif" font-size="14.00">utf8ize</text>
</g>
<!-- merge&#45;&gt;utf8ize -->
<g id="edge12" class="edge"><title>merge&#45;&gt;utf8ize</title>
<path fill="none" stroke="black" d="M166.843,-863.697C166.843,-855.983 166.843,-846.712 166.843,-838.112"/>
<polygon fill="black" stroke="black" points="170.343,-838.104 166.843,-828.104 163.343,-838.104 170.343,-838.104"/>
</g>
<!-- connectivity -->
<g id="node18" class="node"><title>connectivity</title>
<ellipse fill="none" stroke="black" cx="166.843" cy="-594" rx="53.8905" ry="18"/>
<text text-anchor="middle" x="166.843" y="-590.3" font-family="Times,serif" font-size="14.00">connectivity</text>
</g>
<!-- msgmeta&#45;&gt;connectivity -->
<g id="edge15" class="edge"><title>msgmeta&#45;&gt;connectivity</title>
<path fill="none" stroke="black" d="M166.843,-647.697C166.843,-639.983 166.843,-630.712 166.843,-622.112"/>
<polygon fill="black" stroke="black" points="170.343,-622.104 166.843,-612.104 163.343,-622.104 170.343,-622.104"/>
</g>
<!-- repack -->
<g id="node16" class="node"><title>repack</title>
<ellipse fill="none" stroke="black" cx="166.843" cy="-522" rx="51.1914" ry="18"/>
<text text-anchor="middle" x="166.843" y="-518.3" font-family="Times,serif" font-size="14.00">repack&#45;zstd</text>
</g>
<!-- lexicon -->
<g id="node19" class="node"><title>lexicon</title>
<ellipse fill="none" stroke="black" cx="166.843" cy="-450" rx="36.2938" ry="18"/>
<text text-anchor="middle" x="166.843" y="-446.3" font-family="Times,serif" font-size="14.00">lexicon</text>
</g>
<!-- repack&#45;&gt;lexicon -->
<g id="edge17" class="edge"><title>repack&#45;&gt;lexicon</title>
<path fill="none" stroke="black" d="M166.843,-503.697C166.843,-495.983 166.843,-486.712 166.843,-478.112"/>
<polygon fill="black" stroke="black" points="170.343,-478.104 166.843,-468.104 163.343,-478.104 170.343,-478.104"/>
</g>
<!-- utf8ize&#45;&gt;msgid3 -->
<g id="edge13" class="edge"><title>utf8ize&#45;&gt;msgid3</title>
<path fill="none" stroke="black" d="M166.843,-791.697C166.843,-783.983 166.843,-774.712 166.843,-766.112"/>
<polygon fill="black" stroke="black" points="170.343,-766.104 166.843,-756.104 163.343,-766.104 170.343,-766.104"/>
</g>
<!-- connectivity&#45;&gt;repack -->
<g id="edge16" class="edge"><title>connectivity&#45;&gt;repack</title>
<path fill="none" stroke="black" d="M166.843,-575.697C166.843,-567.983 166.843,-558.712 166.843,-550.112"/>
<polygon fill="black" stroke="black" points="170.343,-550.104 166.843,-540.104 163.343,-550.104 170.343,-550.104"/>
</g>
<!-- lexopt -->
<g id="node20" class="node"><title>lexopt</title>
<ellipse fill="none" stroke="black" cx="133.843" cy="-378" rx="32.4942" ry="18"/>
<text text-anchor="middle" x="133.843" y="-374.3" font-family="Times,serif" font-size="14.00">lexopt</text>
</g>
<!-- lexicon&#45;&gt;lexopt -->
<g id="edge18" class="edge"><title>lexicon&#45;&gt;lexopt</title>
<path fill="none" stroke="black" d="M159.022,-432.411C155.174,-424.249 150.446,-414.22 146.13,-405.065"/>
<polygon fill="black" stroke="black" points="149.266,-403.509 141.836,-395.956 142.935,-406.494 149.266,-403.509"/>
</g>
<!-- lexhash -->
<g id="node21" class="node"><title>lexhash</title>
<ellipse fill="none" stroke="black" cx="130.843" cy="-306" rx="37.8943" ry="18"/>
<text text-anchor="middle" x="130.843" y="-302.3" font-family="Times,serif" font-size="14.00">lexhash</text>
</g>
<!-- lexopt&#45;&gt;lexhash -->
<g id="edge19" class="edge"><title>lexopt&#45;&gt;lexhash</title>
<path fill="none" stroke="black" d="M133.101,-359.697C132.77,-351.983 132.373,-342.712 132.005,-334.112"/>
<polygon fill="black" stroke="black" points="135.501,-333.945 131.576,-324.104 128.507,-334.245 135.501,-333.945"/>
</g>
<!-- lexsort -->
<g id="node22" class="node"><title>lexsort</title>
<ellipse fill="none" stroke="black" cx="130.843" cy="-234" rx="34.394" ry="18"/>
<text text-anchor="middle" x="130.843" y="-230.3" font-family="Times,serif" font-size="14.00">lexsort</text>
</g>
<!-- lexhash&#45;&gt;lexsort -->
<g id="edge20" class="edge"><title>lexhash&#45;&gt;lexsort</title>
<path fill="none" stroke="black" d="M130.843,-287.697C130.843,-279.983 130.843,-270.712 130.843,-262.112"/>
<polygon fill="black" stroke="black" points="134.343,-262.104 130.843,-252.104 127.343,-262.104 134.343,-262.104"/>
</g>
<!-- package -->
<g id="node23" class="node"><title>package</title>
<ellipse fill="none" stroke="black" cx="96.8426" cy="-162" rx="39.7935" ry="18"/>
<text text-anchor="middle" x="96.8426" y="-158.3" font-family="Times,serif" font-size="14.00">package</text>
</g>
<!-- lexsort&#45;&gt;package -->
<g id="edge21" class="edge"><title>lexsort&#45;&gt;package</title>
<path fill="none" stroke="black" d="M122.785,-216.411C118.821,-208.249 113.95,-198.22 109.503,-189.065"/>
<polygon fill="black" stroke="black" points="112.596,-187.422 105.078,-179.956 106.299,-190.48 112.596,-187.422"/>
</g>
<!-- threadify -->
<g id="node26" class="node"><title>threadify</title>
<ellipse fill="none" stroke="black" cx="196.843" cy="-162" rx="42.4939" ry="18"/>
<text text-anchor="middle" x="196.843" y="-158.3" font-family="Times,serif" font-size="14.00">threadify</text>
</g>
<!-- lexsort&#45;&gt;threadify -->
<g id="edge25" class="edge"><title>lexsort&#45;&gt;threadify</title>
<path fill="none" stroke="black" d="M145.49,-217.465C154.085,-208.349 165.115,-196.651 174.748,-186.434"/>
<polygon fill="black" stroke="black" points="177.465,-188.654 181.778,-178.977 172.372,-183.852 177.465,-188.654"/>
</g>
<!-- package&#45;&gt;dst1 -->
<g id="edge22" class="edge"><title>package&#45;&gt;dst1</title>
<path fill="none" stroke="black" d="M96.8426,-143.697C96.8426,-135.983 96.8426,-126.712 96.8426,-118.112"/>
<polygon fill="black" stroke="black" points="100.343,-118.104 96.8426,-108.104 93.3427,-118.104 100.343,-118.104"/>
</g>
<!-- threadify&#45;&gt;lexicon -->
<g id="edge26" class="edge"><title>threadify&#45;&gt;lexicon</title>
<path fill="none" stroke="black" d="M195.542,-180.281C192.557,-218.984 184.705,-315.543 174.843,-396 173.808,-404.443 172.492,-413.613 171.228,-421.916"/>
<polygon fill="black" stroke="black" points="167.762,-421.428 169.679,-431.847 174.678,-422.506 167.762,-421.428"/>
</g>
</g>
</svg>
