<?xml version="1.0" encoding="UTF-8" standalone="no"?>
<!DOCTYPE svg PUBLIC "-//W3C//DTD SVG 1.1//EN"
 "http://www.w3.org/Graphics/SVG/1.1/DTD/svg11.dtd">
<!-- Generated by graphviz version 2.38.0 (20140413.2041)
 -->
<!-- Title: %3 Pages: 1 -->
<svg width="349pt" height="1412pt"
 viewBox="0.00 0.00 348.78 1412.00" xmlns="http://www.w3.org/2000/svg" xmlns:xlink="http://www.w3.org/1999/xlink">
<g id="graph0" class="graph" transform="scale(1 1) rotate(0) translate(4 1408)">
<title>%3</title>
<polygon fill="white" stroke="none" points="-4,4 -4,-1408 344.784,-1408 344.784,4 -4,4"/>
<!-- src1 -->
<g id="node1" class="node"><title>src1</title>
<ellipse fill="none" stroke="red" cx="85.7924" cy="-1386" rx="53.8905" ry="18"/>
<text text-anchor="middle" x="85.7924" y="-1382.3" font-family="Times,serif" font-size="14.00">First source</text>
</g>
<!-- mbox -->
<g id="node4" class="node"><title>mbox</title>
<ellipse fill="none" stroke="black" cx="85.7924" cy="-1314" rx="85.5853" ry="18"/>
<text text-anchor="middle" x="85.7924" y="-1310.3" font-family="Times,serif" font-size="14.00">import&#45;source&#45;mbox</text>
</g>
<!-- src1&#45;&gt;mbox -->
<g id="edge1" class="edge"><title>src1&#45;&gt;mbox</title>
<path fill="none" stroke="black" d="M85.7924,-1367.7C85.7924,-1359.98 85.7924,-1350.71 85.7924,-1342.11"/>
<polygon fill="black" stroke="black" points="89.2925,-1342.1 85.7924,-1332.1 82.2925,-1342.1 89.2925,-1342.1"/>
</g>
<!-- src2 -->
<g id="node2" class="node"><title>src2</title>
<ellipse fill="none" stroke="red" cx="249.792" cy="-1170" rx="65.7887" ry="18"/>
<text text-anchor="middle" x="249.792" y="-1166.3" font-family="Times,serif" font-size="14.00">Second source</text>
</g>
<!-- slrnpull -->
<g id="node5" class="node"><title>slrnpull</title>
<ellipse fill="none" stroke="black" cx="249.792" cy="-1098" rx="90.9839" ry="18"/>
<text text-anchor="middle" x="249.792" y="-1094.3" font-family="Times,serif" font-size="14.00">import&#45;source&#45;slrnpull</text>
</g>
<!-- src2&#45;&gt;slrnpull -->
<g id="edge2" class="edge"><title>src2&#45;&gt;slrnpull</title>
<path fill="none" stroke="black" d="M249.792,-1151.7C249.792,-1143.98 249.792,-1134.71 249.792,-1126.11"/>
<polygon fill="black" stroke="black" points="253.292,-1126.1 249.792,-1116.1 246.292,-1126.1 253.292,-1126.1"/>
</g>
<!-- dst1 -->
<g id="node3" class="node"><title>dst1</title>
<ellipse fill="none" stroke="blue" cx="100.792" cy="-90" rx="38.9931" ry="18"/>
<text text-anchor="middle" x="100.792" y="-86.3" font-family="Times,serif" font-size="14.00">Archive</text>
</g>
<!-- query -->
<g id="node24" class="node"><title>query</title>
<ellipse fill="none" stroke="black" cx="56.7924" cy="-18" rx="31.3957" ry="18"/>
<text text-anchor="middle" x="56.7924" y="-14.3" font-family="Times,serif" font-size="14.00">query</text>
</g>
<!-- dst1&#45;&gt;query -->
<g id="edge23" class="edge"><title>dst1&#45;&gt;query</title>
<path fill="none" stroke="black" d="M90.365,-72.411C85.0497,-63.9549 78.4746,-53.4944 72.5559,-44.0783"/>
<polygon fill="black" stroke="black" points="75.4299,-42.0737 67.1449,-35.4699 69.5035,-45.7989 75.4299,-42.0737"/>
</g>
<!-- browser -->
<g id="node25" class="node"><title>browser</title>
<ellipse fill="none" stroke="black" cx="145.792" cy="-18" rx="40.0939" ry="18"/>
<text text-anchor="middle" x="145.792" y="-14.3" font-family="Times,serif" font-size="14.00">browser</text>
</g>
<!-- dst1&#45;&gt;browser -->
<g id="edge24" class="edge"><title>dst1&#45;&gt;browser</title>
<path fill="none" stroke="black" d="M111.457,-72.411C116.893,-63.9549 123.617,-53.4944 129.671,-44.0783"/>
<polygon fill="black" stroke="black" points="132.741,-45.7744 135.205,-35.4699 126.853,-41.9891 132.741,-45.7744"/>
</g>
<!-- kill1 -->
<g id="node6" class="node"><title>kill1</title>
<ellipse fill="none" stroke="black" cx="85.7924" cy="-1242" rx="60.3893" ry="18"/>
<text text-anchor="middle" x="85.7924" y="-1238.3" font-family="Times,serif" font-size="14.00">kill&#45;duplicates</text>
</g>
<!-- mbox&#45;&gt;kill1 -->
<g id="edge3" class="edge"><title>mbox&#45;&gt;kill1</title>
<path fill="none" stroke="black" d="M85.7924,-1295.7C85.7924,-1287.98 85.7924,-1278.71 85.7924,-1270.11"/>
<polygon fill="black" stroke="black" points="89.2925,-1270.1 85.7924,-1260.1 82.2925,-1270.1 89.2925,-1270.1"/>
</g>
<!-- kill2 -->
<g id="node7" class="node"><title>kill2</title>
<ellipse fill="none" stroke="black" cx="246.792" cy="-1026" rx="60.3893" ry="18"/>
<text text-anchor="middle" x="246.792" y="-1022.3" font-family="Times,serif" font-size="14.00">kill&#45;duplicates</text>
</g>
<!-- slrnpull&#45;&gt;kill2 -->
<g id="edge4" class="edge"><title>slrnpull&#45;&gt;kill2</title>
<path fill="none" stroke="black" d="M249.051,-1079.7C248.72,-1071.98 248.323,-1062.71 247.954,-1054.11"/>
<polygon fill="black" stroke="black" points="251.45,-1053.95 247.525,-1044.1 244.457,-1054.25 251.45,-1053.95"/>
</g>
<!-- msgid4 -->
<g id="node11" class="node"><title>msgid4</title>
<ellipse fill="none" stroke="black" cx="85.7924" cy="-1170" rx="59.5901" ry="18"/>
<text text-anchor="middle" x="85.7924" y="-1166.3" font-family="Times,serif" font-size="14.00">extract&#45;msgid</text>
</g>
<!-- kill1&#45;&gt;msgid4 -->
<g id="edge5" class="edge"><title>kill1&#45;&gt;msgid4</title>
<path fill="none" stroke="black" d="M85.7924,-1223.7C85.7924,-1215.98 85.7924,-1206.71 85.7924,-1198.11"/>
<polygon fill="black" stroke="black" points="89.2925,-1198.1 85.7924,-1188.1 82.2925,-1198.1 89.2925,-1198.1"/>
</g>
<!-- msgid2 -->
<g id="node9" class="node"><title>msgid2</title>
<ellipse fill="none" stroke="black" cx="241.792" cy="-954" rx="59.5901" ry="18"/>
<text text-anchor="middle" x="241.792" y="-950.3" font-family="Times,serif" font-size="14.00">extract&#45;msgid</text>
</g>
<!-- kill2&#45;&gt;msgid2 -->
<g id="edge9" class="edge"><title>kill2&#45;&gt;msgid2</title>
<path fill="none" stroke="black" d="M245.556,-1007.7C245.005,-999.983 244.343,-990.712 243.729,-982.112"/>
<polygon fill="black" stroke="black" points="247.218,-981.83 243.014,-972.104 240.236,-982.328 247.218,-981.83"/>
</g>
<!-- msgid1 -->
<g id="node8" class="node"><title>msgid1</title>
<ellipse fill="none" stroke="black" cx="99.7924" cy="-954" rx="59.5901" ry="18"/>
<text text-anchor="middle" x="99.7924" y="-950.3" font-family="Times,serif" font-size="14.00">extract&#45;msgid</text>
</g>
<!-- merge -->
<g id="node14" class="node"><title>merge</title>
<ellipse fill="none" stroke="black" cx="170.792" cy="-882" rx="48.9926" ry="18"/>
<text text-anchor="middle" x="170.792" y="-878.3" font-family="Times,serif" font-size="14.00">merge&#45;raw</text>
</g>
<!-- msgid1&#45;&gt;merge -->
<g id="edge10" class="edge"><title>msgid1&#45;&gt;merge</title>
<path fill="none" stroke="black" d="M116.618,-936.411C125.768,-927.39 137.231,-916.088 147.254,-906.207"/>
<polygon fill="black" stroke="black" points="149.912,-908.501 154.576,-898.988 144.998,-903.517 149.912,-908.501"/>
</g>
<!-- msgid2&#45;&gt;merge -->
<g id="edge11" class="edge"><title>msgid2&#45;&gt;merge</title>
<path fill="none" stroke="black" d="M224.966,-936.411C215.817,-927.39 204.353,-916.088 194.33,-906.207"/>
<polygon fill="black" stroke="black" points="196.587,-903.517 187.009,-898.988 191.673,-908.501 196.587,-903.517"/>
</g>
<!-- msgid3 -->
<g id="node10" class="node"><title>msgid3</title>
<ellipse fill="none" stroke="black" cx="170.792" cy="-738" rx="59.5901" ry="18"/>
<text text-anchor="middle" x="170.792" y="-734.3" font-family="Times,serif" font-size="14.00">extract&#45;msgid</text>
</g>
<!-- msgmeta -->
<g id="node15" class="node"><title>msgmeta</title>
<ellipse fill="none" stroke="black" cx="170.792" cy="-666" rx="70.3881" ry="18"/>
<text text-anchor="middle" x="170.792" y="-662.3" font-family="Times,serif" font-size="14.00">extract&#45;msgmeta</text>
</g>
<!-- msgid3&#45;&gt;msgmeta -->
<g id="edge14" class="edge"><title>msgid3&#45;&gt;msgmeta</title>
<path fill="none" stroke="black" d="M170.792,-719.697C170.792,-711.983 170.792,-702.712 170.792,-694.112"/>
<polygon fill="black" stroke="black" points="174.292,-694.104 170.792,-684.104 167.292,-694.104 174.292,-694.104"/>
</g>
<!-- conn2 -->
<g id="node12" class="node"><title>conn2</title>
<ellipse fill="none" stroke="black" cx="85.7924" cy="-1098" rx="54.6905" ry="18"/>
<text text-anchor="middle" x="85.7924" y="-1094.3" font-family="Times,serif" font-size="14.00">connectivity</text>
</g>
<!-- msgid4&#45;&gt;conn2 -->
<g id="edge6" class="edge"><title>msgid4&#45;&gt;conn2</title>
<path fill="none" stroke="black" d="M85.7924,-1151.7C85.7924,-1143.98 85.7924,-1134.71 85.7924,-1126.11"/>
<polygon fill="black" stroke="black" points="89.2925,-1126.1 85.7924,-1116.1 82.2925,-1126.1 89.2925,-1126.1"/>
</g>
<!-- filter -->
<g id="node13" class="node"><title>filter</title>
<ellipse fill="none" stroke="black" cx="91.7924" cy="-1026" rx="73.387" ry="18"/>
<text text-anchor="middle" x="91.7924" y="-1022.3" font-family="Times,serif" font-size="14.00">filter&#45;newsgroups</text>
</g>
<!-- conn2&#45;&gt;filter -->
<g id="edge7" class="edge"><title>conn2&#45;&gt;filter</title>
<path fill="none" stroke="black" d="M87.2755,-1079.7C87.9367,-1071.98 88.7313,-1062.71 89.4685,-1054.11"/>
<polygon fill="black" stroke="black" points="92.9594,-1054.37 90.3263,-1044.1 85.985,-1053.77 92.9594,-1054.37"/>
</g>
<!-- filter&#45;&gt;msgid1 -->
<g id="edge8" class="edge"><title>filter&#45;&gt;msgid1</title>
<path fill="none" stroke="black" d="M93.7699,-1007.7C94.6515,-999.983 95.711,-990.712 96.6938,-982.112"/>
<polygon fill="black" stroke="black" points="100.179,-982.437 97.8376,-972.104 93.2247,-981.642 100.179,-982.437"/>
</g>
<!-- utf8ize -->
<g id="node17" class="node"><title>utf8ize</title>
<ellipse fill="none" stroke="black" cx="170.792" cy="-810" rx="34.394" ry="18"/>
<text text-anchor="middle" x="170.792" y="-806.3" font-family="Times,serif" font-size="14.00">utf8ize</text>
</g>
<!-- merge&#45;&gt;utf8ize -->
<g id="edge12" class="edge"><title>merge&#45;&gt;utf8ize</title>
<path fill="none" stroke="black" d="M170.792,-863.697C170.792,-855.983 170.792,-846.712 170.792,-838.112"/>
<polygon fill="black" stroke="black" points="174.292,-838.104 170.792,-828.104 167.292,-838.104 174.292,-838.104"/>
</g>
<!-- connectivity -->
<g id="node18" class="node"><title>connectivity</title>
<ellipse fill="none" stroke="black" cx="170.792" cy="-594" rx="54.6905" ry="18"/>
<text text-anchor="middle" x="170.792" y="-590.3" font-family="Times,serif" font-size="14.00">connectivity</text>
</g>
<!-- msgmeta&#45;&gt;connectivity -->
<g id="edge15" class="edge"><title>msgmeta&#45;&gt;connectivity</title>
<path fill="none" stroke="black" d="M170.792,-647.697C170.792,-639.983 170.792,-630.712 170.792,-622.112"/>
<polygon fill="black" stroke="black" points="174.292,-622.104 170.792,-612.104 167.292,-622.104 174.292,-622.104"/>
</g>
<!-- repack -->
<g id="node16" class="node"><title>repack</title>
<ellipse fill="none" stroke="black" cx="170.792" cy="-522" rx="53.0913" ry="18"/>
<text text-anchor="middle" x="170.792" y="-518.3" font-family="Times,serif" font-size="14.00">repack&#45;zstd</text>
</g>
<!-- lexicon -->
<g id="node19" class="node"><title>lexicon</title>
<ellipse fill="none" stroke="black" cx="170.792" cy="-450" rx="36.2938" ry="18"/>
<text text-anchor="middle" x="170.792" y="-446.3" font-family="Times,serif" font-size="14.00">lexicon</text>
</g>
<!-- repack&#45;&gt;lexicon -->
<g id="edge17" class="edge"><title>repack&#45;&gt;lexicon</title>
<path fill="none" stroke="black" d="M170.792,-503.697C170.792,-495.983 170.792,-486.712 170.792,-478.112"/>
<polygon fill="black" stroke="black" points="174.292,-478.104 170.792,-468.104 167.292,-478.104 174.292,-478.104"/>
</g>
<!-- utf8ize&#45;&gt;msgid3 -->
<g id="edge13" class="edge"><title>utf8ize&#45;&gt;msgid3</title>
<path fill="none" stroke="black" d="M170.792,-791.697C170.792,-783.983 170.792,-774.712 170.792,-766.112"/>
<polygon fill="black" stroke="black" points="174.292,-766.104 170.792,-756.104 167.292,-766.104 174.292,-766.104"/>
</g>
<!-- connectivity&#45;&gt;repack -->
<g id="edge16" class="edge"><title>connectivity&#45;&gt;repack</title>
<path fill="none" stroke="black" d="M170.792,-575.697C170.792,-567.983 170.792,-558.712 170.792,-550.112"/>
<polygon fill="black" stroke="black" points="174.292,-550.104 170.792,-540.104 167.292,-550.104 174.292,-550.104"/>
</g>
<!-- lexopt -->
<g id="node20" class="node"><title>lexopt</title>
<ellipse fill="none" stroke="black" cx="137.792" cy="-378" rx="33.2948" ry="18"/>
<text text-anchor="middle" x="137.792" y="-374.3" font-family="Times,serif" font-size="14.00">lexopt</text>
</g>
<!-- lexicon&#45;&gt;lexopt -->
<g id="edge18" class="edge"><title>lexicon&#45;&gt;lexopt</title>
<path fill="none" stroke="black" d="M162.972,-432.411C159.124,-424.249 154.396,-414.22 150.08,-405.065"/>
<polygon fill="black" stroke="black" points="153.216,-403.509 145.786,-395.956 146.884,-406.494 153.216,-403.509"/>
</g>
<!-- lexhash -->
<g id="node21" class="node"><title>lexhash</title>
<ellipse fill="none" stroke="black" cx="135.792" cy="-306" rx="37.8943" ry="18"/>
<text text-anchor="middle" x="135.792" y="-302.3" font-family="Times,serif" font-size="14.00">lexhash</text>
</g>
<!-- lexopt&#45;&gt;lexhash -->
<g id="edge19" class="edge"><title>lexopt&#45;&gt;lexhash</title>
<path fill="none" stroke="black" d="M137.298,-359.697C137.078,-351.983 136.813,-342.712 136.567,-334.112"/>
<polygon fill="black" stroke="black" points="140.065,-334 136.281,-324.104 133.068,-334.2 140.065,-334"/>
</g>
<!-- lexsort -->
<g id="node22" class="node"><title>lexsort</title>
<ellipse fill="none" stroke="black" cx="135.792" cy="-234" rx="35.194" ry="18"/>
<text text-anchor="middle" x="135.792" y="-230.3" font-family="Times,serif" font-size="14.00">lexsort</text>
</g>
<!-- lexhash&#45;&gt;lexsort -->
<g id="edge20" class="edge"><title>lexhash&#45;&gt;lexsort</title>
<path fill="none" stroke="black" d="M135.792,-287.697C135.792,-279.983 135.792,-270.712 135.792,-262.112"/>
<polygon fill="black" stroke="black" points="139.292,-262.104 135.792,-252.104 132.292,-262.104 139.292,-262.104"/>
</g>
<!-- package -->
<g id="node23" class="node"><title>package</title>
<ellipse fill="none" stroke="black" cx="100.792" cy="-162" rx="40.0939" ry="18"/>
<text text-anchor="middle" x="100.792" y="-158.3" font-family="Times,serif" font-size="14.00">package</text>
</g>
<!-- lexsort&#45;&gt;package -->
<g id="edge21" class="edge"><title>lexsort&#45;&gt;package</title>
<path fill="none" stroke="black" d="M127.498,-216.411C123.417,-208.249 118.403,-198.22 113.825,-189.065"/>
<polygon fill="black" stroke="black" points="116.873,-187.335 109.27,-179.956 110.612,-190.466 116.873,-187.335"/>
</g>
<!-- threadify -->
<g id="node26" class="node"><title>threadify</title>
<ellipse fill="none" stroke="black" cx="201.792" cy="-162" rx="42.4939" ry="18"/>
<text text-anchor="middle" x="201.792" y="-158.3" font-family="Times,serif" font-size="14.00">threadify</text>
</g>
<!-- lexsort&#45;&gt;threadify -->
<g id="edge25" class="edge"><title>lexsort&#45;&gt;threadify</title>
<path fill="none" stroke="black" d="M150.44,-217.465C159.035,-208.349 170.064,-196.651 179.697,-186.434"/>
<polygon fill="black" stroke="black" points="182.415,-188.654 186.728,-178.977 177.321,-183.852 182.415,-188.654"/>
</g>
<!-- package&#45;&gt;dst1 -->
<g id="edge22" class="edge"><title>package&#45;&gt;dst1</title>
<path fill="none" stroke="black" d="M100.792,-143.697C100.792,-135.983 100.792,-126.712 100.792,-118.112"/>
<polygon fill="black" stroke="black" points="104.292,-118.104 100.792,-108.104 97.2925,-118.104 104.292,-118.104"/>
</g>
<!-- threadify&#45;&gt;lexicon -->
<g id="edge26" class="edge"><title>threadify&#45;&gt;lexicon</title>
<path fill="none" stroke="black" d="M200.621,-180.005C197.87,-218.541 190.421,-315.436 179.792,-396 178.677,-404.458 177.21,-413.633 175.786,-421.934"/>
<polygon fill="black" stroke="black" points="172.325,-421.407 174.034,-431.863 179.218,-422.623 172.325,-421.407"/>
</g>
</g>
</svg>
