<?xml version="1.0" encoding="UTF-8" standalone="no"?>
<!DOCTYPE svg PUBLIC "-//W3C//DTD SVG 1.1//EN"
 "http://www.w3.org/Graphics/SVG/1.1/DTD/svg11.dtd">
<!-- Generated by graphviz version 2.38.0 (20140413.2041)
 -->
<!-- Title: %3 Pages: 1 -->
<svg width="354pt" height="1124pt"
 viewBox="0.00 0.00 353.78 1124.00" xmlns="http://www.w3.org/2000/svg" xmlns:xlink="http://www.w3.org/1999/xlink">
<g id="graph0" class="graph" transform="scale(1 1) rotate(0) translate(4 1120)">
<title>%3</title>
<polygon fill="white" stroke="none" points="-4,4 -4,-1120 349.784,-1120 349.784,4 -4,4"/>
<!-- src1 -->
<g id="node1" class="node"><title>src1</title>
<ellipse fill="none" stroke="red" cx="85.7924" cy="-1098" rx="53.8905" ry="18"/>
<text text-anchor="middle" x="85.7924" y="-1094.3" font-family="Times,serif" font-size="14.00">First source</text>
</g>
<!-- mbox -->
<g id="node4" class="node"><title>mbox</title>
<ellipse fill="none" stroke="black" cx="85.7924" cy="-1026" rx="85.5853" ry="18"/>
<text text-anchor="middle" x="85.7924" y="-1022.3" font-family="Times,serif" font-size="14.00">import&#45;source&#45;mbox</text>
</g>
<!-- src1&#45;&gt;mbox -->
<g id="edge1" class="edge"><title>src1&#45;&gt;mbox</title>
<path fill="none" stroke="black" d="M85.7924,-1079.7C85.7924,-1071.98 85.7924,-1062.71 85.7924,-1054.11"/>
<polygon fill="black" stroke="black" points="89.2925,-1054.1 85.7924,-1044.1 82.2925,-1054.1 89.2925,-1054.1"/>
</g>
<!-- src2 -->
<g id="node2" class="node"><title>src2</title>
<ellipse fill="none" stroke="red" cx="254.792" cy="-1026" rx="65.7887" ry="18"/>
<text text-anchor="middle" x="254.792" y="-1022.3" font-family="Times,serif" font-size="14.00">Second source</text>
</g>
<!-- slrnpull -->
<g id="node5" class="node"><title>slrnpull</title>
<ellipse fill="none" stroke="black" cx="254.792" cy="-954" rx="90.9839" ry="18"/>
<text text-anchor="middle" x="254.792" y="-950.3" font-family="Times,serif" font-size="14.00">import&#45;source&#45;slrnpull</text>
</g>
<!-- src2&#45;&gt;slrnpull -->
<g id="edge2" class="edge"><title>src2&#45;&gt;slrnpull</title>
<path fill="none" stroke="black" d="M254.792,-1007.7C254.792,-999.983 254.792,-990.712 254.792,-982.112"/>
<polygon fill="black" stroke="black" points="258.292,-982.104 254.792,-972.104 251.292,-982.104 258.292,-982.104"/>
</g>
<!-- dst1 -->
<g id="node3" class="node"><title>dst1</title>
<ellipse fill="none" stroke="blue" cx="173.792" cy="-90" rx="38.9931" ry="18"/>
<text text-anchor="middle" x="173.792" y="-86.3" font-family="Times,serif" font-size="14.00">Archive</text>
</g>
<!-- query -->
<g id="node20" class="node"><title>query</title>
<ellipse fill="none" stroke="black" cx="129.792" cy="-18" rx="31.3957" ry="18"/>
<text text-anchor="middle" x="129.792" y="-14.3" font-family="Times,serif" font-size="14.00">query</text>
</g>
<!-- dst1&#45;&gt;query -->
<g id="edge19" class="edge"><title>dst1&#45;&gt;query</title>
<path fill="none" stroke="black" d="M163.365,-72.411C158.05,-63.9549 151.475,-53.4944 145.556,-44.0783"/>
<polygon fill="black" stroke="black" points="148.43,-42.0737 140.145,-35.4699 142.503,-45.7989 148.43,-42.0737"/>
</g>
<!-- browser -->
<g id="node21" class="node"><title>browser</title>
<ellipse fill="none" stroke="black" cx="218.792" cy="-18" rx="40.0939" ry="18"/>
<text text-anchor="middle" x="218.792" y="-14.3" font-family="Times,serif" font-size="14.00">browser</text>
</g>
<!-- dst1&#45;&gt;browser -->
<g id="edge20" class="edge"><title>dst1&#45;&gt;browser</title>
<path fill="none" stroke="black" d="M184.457,-72.411C189.893,-63.9549 196.617,-53.4944 202.671,-44.0783"/>
<polygon fill="black" stroke="black" points="205.741,-45.7744 208.205,-35.4699 199.853,-41.9891 205.741,-45.7744"/>
</g>
<!-- kill1 -->
<g id="node6" class="node"><title>kill1</title>
<ellipse fill="none" stroke="black" cx="85.7924" cy="-954" rx="60.3893" ry="18"/>
<text text-anchor="middle" x="85.7924" y="-950.3" font-family="Times,serif" font-size="14.00">kill&#45;duplicates</text>
</g>
<!-- mbox&#45;&gt;kill1 -->
<g id="edge3" class="edge"><title>mbox&#45;&gt;kill1</title>
<path fill="none" stroke="black" d="M85.7924,-1007.7C85.7924,-999.983 85.7924,-990.712 85.7924,-982.112"/>
<polygon fill="black" stroke="black" points="89.2925,-982.104 85.7924,-972.104 82.2925,-982.104 89.2925,-982.104"/>
</g>
<!-- kill2 -->
<g id="node7" class="node"><title>kill2</title>
<ellipse fill="none" stroke="black" cx="249.792" cy="-882" rx="60.3893" ry="18"/>
<text text-anchor="middle" x="249.792" y="-878.3" font-family="Times,serif" font-size="14.00">kill&#45;duplicates</text>
</g>
<!-- slrnpull&#45;&gt;kill2 -->
<g id="edge4" class="edge"><title>slrnpull&#45;&gt;kill2</title>
<path fill="none" stroke="black" d="M253.556,-935.697C253.005,-927.983 252.343,-918.712 251.729,-910.112"/>
<polygon fill="black" stroke="black" points="255.218,-909.83 251.014,-900.104 248.236,-910.328 255.218,-909.83"/>
</g>
<!-- filter -->
<g id="node11" class="node"><title>filter</title>
<ellipse fill="none" stroke="black" cx="93.7924" cy="-882" rx="73.387" ry="18"/>
<text text-anchor="middle" x="93.7924" y="-878.3" font-family="Times,serif" font-size="14.00">filter&#45;newsgroups</text>
</g>
<!-- kill1&#45;&gt;filter -->
<g id="edge5" class="edge"><title>kill1&#45;&gt;filter</title>
<path fill="none" stroke="black" d="M87.7699,-935.697C88.6515,-927.983 89.711,-918.712 90.6938,-910.112"/>
<polygon fill="black" stroke="black" points="94.1794,-910.437 91.8376,-900.104 87.2247,-909.642 94.1794,-910.437"/>
</g>
<!-- msgid2 -->
<g id="node9" class="node"><title>msgid2</title>
<ellipse fill="none" stroke="black" cx="244.792" cy="-810" rx="59.5901" ry="18"/>
<text text-anchor="middle" x="244.792" y="-806.3" font-family="Times,serif" font-size="14.00">extract&#45;msgid</text>
</g>
<!-- kill2&#45;&gt;msgid2 -->
<g id="edge7" class="edge"><title>kill2&#45;&gt;msgid2</title>
<path fill="none" stroke="black" d="M248.556,-863.697C248.005,-855.983 247.343,-846.712 246.729,-838.112"/>
<polygon fill="black" stroke="black" points="250.218,-837.83 246.014,-828.104 243.236,-838.328 250.218,-837.83"/>
</g>
<!-- msgid1 -->
<g id="node8" class="node"><title>msgid1</title>
<ellipse fill="none" stroke="black" cx="102.792" cy="-810" rx="59.5901" ry="18"/>
<text text-anchor="middle" x="102.792" y="-806.3" font-family="Times,serif" font-size="14.00">extract&#45;msgid</text>
</g>
<!-- merge -->
<g id="node12" class="node"><title>merge</title>
<ellipse fill="none" stroke="black" cx="173.792" cy="-738" rx="48.9926" ry="18"/>
<text text-anchor="middle" x="173.792" y="-734.3" font-family="Times,serif" font-size="14.00">merge&#45;raw</text>
</g>
<!-- msgid1&#45;&gt;merge -->
<g id="edge8" class="edge"><title>msgid1&#45;&gt;merge</title>
<path fill="none" stroke="black" d="M119.618,-792.411C128.768,-783.39 140.231,-772.088 150.254,-762.207"/>
<polygon fill="black" stroke="black" points="152.912,-764.501 157.576,-754.988 147.998,-759.517 152.912,-764.501"/>
</g>
<!-- msgid2&#45;&gt;merge -->
<g id="edge9" class="edge"><title>msgid2&#45;&gt;merge</title>
<path fill="none" stroke="black" d="M227.966,-792.411C218.817,-783.39 207.353,-772.088 197.33,-762.207"/>
<polygon fill="black" stroke="black" points="199.587,-759.517 190.009,-754.988 194.673,-764.501 199.587,-759.517"/>
</g>
<!-- msgid3 -->
<g id="node10" class="node"><title>msgid3</title>
<ellipse fill="none" stroke="black" cx="173.792" cy="-594" rx="59.5901" ry="18"/>
<text text-anchor="middle" x="173.792" y="-590.3" font-family="Times,serif" font-size="14.00">extract&#45;msgid</text>
</g>
<!-- msgmeta -->
<g id="node13" class="node"><title>msgmeta</title>
<ellipse fill="none" stroke="black" cx="173.792" cy="-522" rx="70.3881" ry="18"/>
<text text-anchor="middle" x="173.792" y="-518.3" font-family="Times,serif" font-size="14.00">extract&#45;msgmeta</text>
</g>
<!-- msgid3&#45;&gt;msgmeta -->
<g id="edge12" class="edge"><title>msgid3&#45;&gt;msgmeta</title>
<path fill="none" stroke="black" d="M173.792,-575.697C173.792,-567.983 173.792,-558.712 173.792,-550.112"/>
<polygon fill="black" stroke="black" points="177.292,-550.104 173.792,-540.104 170.292,-550.104 177.292,-550.104"/>
</g>
<!-- filter&#45;&gt;msgid1 -->
<g id="edge6" class="edge"><title>filter&#45;&gt;msgid1</title>
<path fill="none" stroke="black" d="M96.0171,-863.697C97.0089,-855.983 98.2008,-846.712 99.3065,-838.112"/>
<polygon fill="black" stroke="black" points="102.789,-838.469 100.593,-828.104 95.8465,-837.576 102.789,-838.469"/>
</g>
<!-- utf8ize -->
<g id="node15" class="node"><title>utf8ize</title>
<ellipse fill="none" stroke="black" cx="173.792" cy="-666" rx="34.394" ry="18"/>
<text text-anchor="middle" x="173.792" y="-662.3" font-family="Times,serif" font-size="14.00">utf8ize</text>
</g>
<!-- merge&#45;&gt;utf8ize -->
<g id="edge10" class="edge"><title>merge&#45;&gt;utf8ize</title>
<path fill="none" stroke="black" d="M173.792,-719.697C173.792,-711.983 173.792,-702.712 173.792,-694.112"/>
<polygon fill="black" stroke="black" points="177.292,-694.104 173.792,-684.104 170.292,-694.104 177.292,-694.104"/>
</g>
<!-- connectivity -->
<g id="node16" class="node"><title>connectivity</title>
<ellipse fill="none" stroke="black" cx="173.792" cy="-450" rx="54.6905" ry="18"/>
<text text-anchor="middle" x="173.792" y="-446.3" font-family="Times,serif" font-size="14.00">connectivity</text>
</g>
<!-- msgmeta&#45;&gt;connectivity -->
<g id="edge13" class="edge"><title>msgmeta&#45;&gt;connectivity</title>
<path fill="none" stroke="black" d="M173.792,-503.697C173.792,-495.983 173.792,-486.712 173.792,-478.112"/>
<polygon fill="black" stroke="black" points="177.292,-478.104 173.792,-468.104 170.292,-478.104 177.292,-478.104"/>
</g>
<!-- repack -->
<g id="node14" class="node"><title>repack</title>
<ellipse fill="none" stroke="black" cx="173.792" cy="-378" rx="53.0913" ry="18"/>
<text text-anchor="middle" x="173.792" y="-374.3" font-family="Times,serif" font-size="14.00">repack&#45;zstd</text>
</g>
<!-- lexicon -->
<g id="node17" class="node"><title>lexicon</title>
<ellipse fill="none" stroke="black" cx="173.792" cy="-306" rx="36.2938" ry="18"/>
<text text-anchor="middle" x="173.792" y="-302.3" font-family="Times,serif" font-size="14.00">lexicon</text>
</g>
<!-- repack&#45;&gt;lexicon -->
<g id="edge15" class="edge"><title>repack&#45;&gt;lexicon</title>
<path fill="none" stroke="black" d="M173.792,-359.697C173.792,-351.983 173.792,-342.712 173.792,-334.112"/>
<polygon fill="black" stroke="black" points="177.292,-334.104 173.792,-324.104 170.292,-334.104 177.292,-334.104"/>
</g>
<!-- utf8ize&#45;&gt;msgid3 -->
<g id="edge11" class="edge"><title>utf8ize&#45;&gt;msgid3</title>
<path fill="none" stroke="black" d="M173.792,-647.697C173.792,-639.983 173.792,-630.712 173.792,-622.112"/>
<polygon fill="black" stroke="black" points="177.292,-622.104 173.792,-612.104 170.292,-622.104 177.292,-622.104"/>
</g>
<!-- connectivity&#45;&gt;repack -->
<g id="edge14" class="edge"><title>connectivity&#45;&gt;repack</title>
<path fill="none" stroke="black" d="M173.792,-431.697C173.792,-423.983 173.792,-414.712 173.792,-406.112"/>
<polygon fill="black" stroke="black" points="177.292,-406.104 173.792,-396.104 170.292,-406.104 177.292,-406.104"/>
</g>
<!-- lexhash -->
<g id="node18" class="node"><title>lexhash</title>
<ellipse fill="none" stroke="black" cx="173.792" cy="-234" rx="37.8943" ry="18"/>
<text text-anchor="middle" x="173.792" y="-230.3" font-family="Times,serif" font-size="14.00">lexhash</text>
</g>
<!-- lexicon&#45;&gt;lexhash -->
<g id="edge16" class="edge"><title>lexicon&#45;&gt;lexhash</title>
<path fill="none" stroke="black" d="M173.792,-287.697C173.792,-279.983 173.792,-270.712 173.792,-262.112"/>
<polygon fill="black" stroke="black" points="177.292,-262.104 173.792,-252.104 170.292,-262.104 177.292,-262.104"/>
</g>
<!-- lexsort -->
<g id="node19" class="node"><title>lexsort</title>
<ellipse fill="none" stroke="black" cx="173.792" cy="-162" rx="35.194" ry="18"/>
<text text-anchor="middle" x="173.792" y="-158.3" font-family="Times,serif" font-size="14.00">lexsort</text>
</g>
<!-- lexhash&#45;&gt;lexsort -->
<g id="edge17" class="edge"><title>lexhash&#45;&gt;lexsort</title>
<path fill="none" stroke="black" d="M173.792,-215.697C173.792,-207.983 173.792,-198.712 173.792,-190.112"/>
<polygon fill="black" stroke="black" points="177.292,-190.104 173.792,-180.104 170.292,-190.104 177.292,-190.104"/>
</g>
<!-- lexsort&#45;&gt;dst1 -->
<g id="edge18" class="edge"><title>lexsort&#45;&gt;dst1</title>
<path fill="none" stroke="black" d="M173.792,-143.697C173.792,-135.983 173.792,-126.712 173.792,-118.112"/>
<polygon fill="black" stroke="black" points="177.292,-118.104 173.792,-108.104 170.292,-118.104 177.292,-118.104"/>
</g>
</g>
</svg>
