<?xml version="1.0" encoding="UTF-8" standalone="no"?>
<!DOCTYPE svg PUBLIC "-//W3C//DTD SVG 1.1//EN"
 "http://www.w3.org/Graphics/SVG/1.1/DTD/svg11.dtd">
<!-- Generated by graphviz version 2.40.1 (20161225.0304)
 -->
<!-- Title: %3 Pages: 1 -->
<svg width="352pt" height="1412pt"
 viewBox="0.00 0.00 352.14 1412.00" xmlns="http://www.w3.org/2000/svg" xmlns:xlink="http://www.w3.org/1999/xlink">
<g id="graph0" class="graph" transform="scale(1 1) rotate(0) translate(4 1408)">
<title>%3</title>
<polygon fill="#ffffff" stroke="transparent" points="-4,4 -4,-1408 348.1355,-1408 348.1355,4 -4,4"/>
<!-- ggsrc -->
<g id="node1" class="node">
<title>ggsrc</title>
<ellipse fill="none" stroke="#ff00ff" cx="79.293" cy="-1314" rx="79.0865" ry="18"/>
<text text-anchor="middle" x="79.293" y="-1310.3" font-family="Times,serif" font-size="14.00" fill="#000000">groups.google.com</text>
</g>
<!-- gg -->
<g id="node2" class="node">
<title>gg</title>
<ellipse fill="none" stroke="#000000" cx="81.293" cy="-1242" rx="61.99" ry="18"/>
<text text-anchor="middle" x="81.293" y="-1238.3" font-family="Times,serif" font-size="14.00" fill="#000000">google&#45;groups</text>
</g>
<!-- ggsrc&#45;&gt;gg -->
<g id="edge1" class="edge">
<title>ggsrc&#45;&gt;gg</title>
<path fill="none" stroke="#000000" d="M79.7976,-1295.8314C80.0115,-1288.131 80.2659,-1278.9743 80.5036,-1270.4166"/>
<polygon fill="#000000" stroke="#000000" points="84.0024,-1270.5066 80.7815,-1260.4133 77.0051,-1270.3122 84.0024,-1270.5066"/>
</g>
<!-- src2 -->
<g id="node4" class="node">
<title>src2</title>
<ellipse fill="none" stroke="#ff0000" cx="86.293" cy="-1170" rx="61.99" ry="18"/>
<text text-anchor="middle" x="86.293" y="-1166.3" font-family="Times,serif" font-size="14.00" fill="#000000">Second source</text>
</g>
<!-- gg&#45;&gt;src2 -->
<g id="edge2" class="edge">
<title>gg&#45;&gt;src2</title>
<path fill="none" stroke="#000000" d="M82.5547,-1223.8314C83.0894,-1216.131 83.7253,-1206.9743 84.3196,-1198.4166"/>
<polygon fill="#000000" stroke="#000000" points="87.813,-1198.6317 85.0143,-1188.4133 80.8298,-1198.1467 87.813,-1198.6317"/>
</g>
<!-- src1 -->
<g id="node3" class="node">
<title>src1</title>
<ellipse fill="none" stroke="#ff0000" cx="260.293" cy="-1386" rx="51.9908" ry="18"/>
<text text-anchor="middle" x="260.293" y="-1382.3" font-family="Times,serif" font-size="14.00" fill="#000000">First source</text>
</g>
<!-- mbox -->
<g id="node6" class="node">
<title>mbox</title>
<ellipse fill="none" stroke="#000000" cx="260.293" cy="-1314" rx="83.6854" ry="18"/>
<text text-anchor="middle" x="260.293" y="-1310.3" font-family="Times,serif" font-size="14.00" fill="#000000">import&#45;source&#45;mbox</text>
</g>
<!-- src1&#45;&gt;mbox -->
<g id="edge3" class="edge">
<title>src1&#45;&gt;mbox</title>
<path fill="none" stroke="#000000" d="M260.293,-1367.8314C260.293,-1360.131 260.293,-1350.9743 260.293,-1342.4166"/>
<polygon fill="#000000" stroke="#000000" points="263.7931,-1342.4132 260.293,-1332.4133 256.7931,-1342.4133 263.7931,-1342.4132"/>
</g>
<!-- maildir -->
<g id="node7" class="node">
<title>maildir</title>
<ellipse fill="none" stroke="#000000" cx="96.293" cy="-1098" rx="89.0842" ry="18"/>
<text text-anchor="middle" x="96.293" y="-1094.3" font-family="Times,serif" font-size="14.00" fill="#000000">import&#45;source&#45;maildir</text>
</g>
<!-- src2&#45;&gt;maildir -->
<g id="edge4" class="edge">
<title>src2&#45;&gt;maildir</title>
<path fill="none" stroke="#000000" d="M88.8164,-1151.8314C89.8859,-1144.131 91.1576,-1134.9743 92.3462,-1126.4166"/>
<polygon fill="#000000" stroke="#000000" points="95.8265,-1126.7997 93.7356,-1116.4133 88.8931,-1125.8367 95.8265,-1126.7997"/>
</g>
<!-- dst1 -->
<g id="node5" class="node">
<title>dst1</title>
<ellipse fill="none" stroke="#0000ff" cx="78.293" cy="-90" rx="38.9931" ry="18"/>
<text text-anchor="middle" x="78.293" y="-86.3" font-family="Times,serif" font-size="14.00" fill="#000000">Archive</text>
</g>
<!-- query -->
<g id="node27" class="node">
<title>query</title>
<ellipse fill="none" stroke="#000000" cx="34.293" cy="-18" rx="30.5947" ry="18"/>
<text text-anchor="middle" x="34.293" y="-14.3" font-family="Times,serif" font-size="14.00" fill="#000000">query</text>
</g>
<!-- dst1&#45;&gt;query -->
<g id="edge26" class="edge">
<title>dst1&#45;&gt;query</title>
<path fill="none" stroke="#000000" d="M67.6418,-72.5708C62.3993,-63.9922 55.9729,-53.4762 50.1655,-43.9732"/>
<polygon fill="#000000" stroke="#000000" points="53.0471,-41.9764 44.8461,-35.2687 47.0741,-45.6266 53.0471,-41.9764"/>
</g>
<!-- browser -->
<g id="node28" class="node">
<title>browser</title>
<ellipse fill="none" stroke="#000000" cx="122.293" cy="-18" rx="38.9931" ry="18"/>
<text text-anchor="middle" x="122.293" y="-14.3" font-family="Times,serif" font-size="14.00" fill="#000000">browser</text>
</g>
<!-- dst1&#45;&gt;browser -->
<g id="edge27" class="edge">
<title>dst1&#45;&gt;browser</title>
<path fill="none" stroke="#000000" d="M88.9441,-72.5708C94.1481,-64.0553 100.5186,-53.6308 106.2923,-44.183"/>
<polygon fill="#000000" stroke="#000000" points="109.3593,-45.8762 111.5874,-35.5182 103.3863,-42.226 109.3593,-45.8762"/>
</g>
<!-- kill1 -->
<g id="node8" class="node">
<title>kill1</title>
<ellipse fill="none" stroke="#000000" cx="259.293" cy="-1242" rx="61.1893" ry="18"/>
<text text-anchor="middle" x="259.293" y="-1238.3" font-family="Times,serif" font-size="14.00" fill="#000000">kill&#45;duplicates</text>
</g>
<!-- mbox&#45;&gt;kill1 -->
<g id="edge5" class="edge">
<title>mbox&#45;&gt;kill1</title>
<path fill="none" stroke="#000000" d="M260.0406,-1295.8314C259.9337,-1288.131 259.8065,-1278.9743 259.6876,-1270.4166"/>
<polygon fill="#000000" stroke="#000000" points="263.1873,-1270.3637 259.5487,-1260.4133 256.188,-1270.4609 263.1873,-1270.3637"/>
</g>
<!-- kill2 -->
<g id="node9" class="node">
<title>kill2</title>
<ellipse fill="none" stroke="#000000" cx="100.293" cy="-1026" rx="61.1893" ry="18"/>
<text text-anchor="middle" x="100.293" y="-1022.3" font-family="Times,serif" font-size="14.00" fill="#000000">kill&#45;duplicates</text>
</g>
<!-- maildir&#45;&gt;kill2 -->
<g id="edge6" class="edge">
<title>maildir&#45;&gt;kill2</title>
<path fill="none" stroke="#000000" d="M97.3023,-1079.8314C97.7301,-1072.131 98.2388,-1062.9743 98.7143,-1054.4166"/>
<polygon fill="#000000" stroke="#000000" points="102.2098,-1054.592 99.27,-1044.4133 95.2206,-1054.2037 102.2098,-1054.592"/>
</g>
<!-- msgid4 -->
<g id="node13" class="node">
<title>msgid4</title>
<ellipse fill="none" stroke="#000000" cx="258.293" cy="-1170" rx="59.5901" ry="18"/>
<text text-anchor="middle" x="258.293" y="-1166.3" font-family="Times,serif" font-size="14.00" fill="#000000">extract&#45;msgid</text>
</g>
<!-- kill1&#45;&gt;msgid4 -->
<g id="edge7" class="edge">
<title>kill1&#45;&gt;msgid4</title>
<path fill="none" stroke="#000000" d="M259.0406,-1223.8314C258.9337,-1216.131 258.8065,-1206.9743 258.6876,-1198.4166"/>
<polygon fill="#000000" stroke="#000000" points="262.1873,-1198.3637 258.5487,-1188.4133 255.188,-1198.4609 262.1873,-1198.3637"/>
</g>
<!-- msgid2 -->
<g id="node11" class="node">
<title>msgid2</title>
<ellipse fill="none" stroke="#000000" cx="107.293" cy="-954" rx="59.5901" ry="18"/>
<text text-anchor="middle" x="107.293" y="-950.3" font-family="Times,serif" font-size="14.00" fill="#000000">extract&#45;msgid</text>
</g>
<!-- kill2&#45;&gt;msgid2 -->
<g id="edge11" class="edge">
<title>kill2&#45;&gt;msgid2</title>
<path fill="none" stroke="#000000" d="M102.0594,-1007.8314C102.808,-1000.131 103.6982,-990.9743 104.5302,-982.4166"/>
<polygon fill="#000000" stroke="#000000" points="108.0186,-982.7051 105.5028,-972.4133 101.0515,-982.0276 108.0186,-982.7051"/>
</g>
<!-- msgid1 -->
<g id="node10" class="node">
<title>msgid1</title>
<ellipse fill="none" stroke="#000000" cx="250.293" cy="-954" rx="59.5901" ry="18"/>
<text text-anchor="middle" x="250.293" y="-950.3" font-family="Times,serif" font-size="14.00" fill="#000000">extract&#45;msgid</text>
</g>
<!-- merge -->
<g id="node16" class="node">
<title>merge</title>
<ellipse fill="none" stroke="#000000" cx="176.293" cy="-882" rx="49.2915" ry="18"/>
<text text-anchor="middle" x="176.293" y="-878.3" font-family="Times,serif" font-size="14.00" fill="#000000">merge&#45;raw</text>
</g>
<!-- msgid1&#45;&gt;merge -->
<g id="edge12" class="edge">
<title>msgid1&#45;&gt;merge</title>
<path fill="none" stroke="#000000" d="M232.3796,-936.5708C222.9485,-927.3946 211.2391,-916.0017 200.9626,-906.0029"/>
<polygon fill="#000000" stroke="#000000" points="203.394,-903.4853 193.786,-899.0202 198.5125,-908.5024 203.394,-903.4853"/>
</g>
<!-- msgid2&#45;&gt;merge -->
<g id="edge13" class="edge">
<title>msgid2&#45;&gt;merge</title>
<path fill="none" stroke="#000000" d="M123.9959,-936.5708C132.6409,-927.55 143.3388,-916.387 152.8022,-906.5121"/>
<polygon fill="#000000" stroke="#000000" points="155.3517,-908.9103 159.7438,-899.2687 150.2978,-904.0669 155.3517,-908.9103"/>
</g>
<!-- msgid3 -->
<g id="node12" class="node">
<title>msgid3</title>
<ellipse fill="none" stroke="#000000" cx="176.293" cy="-738" rx="59.5901" ry="18"/>
<text text-anchor="middle" x="176.293" y="-734.3" font-family="Times,serif" font-size="14.00" fill="#000000">extract&#45;msgid</text>
</g>
<!-- msgmeta -->
<g id="node17" class="node">
<title>msgmeta</title>
<ellipse fill="none" stroke="#000000" cx="176.293" cy="-666" rx="70.3881" ry="18"/>
<text text-anchor="middle" x="176.293" y="-662.3" font-family="Times,serif" font-size="14.00" fill="#000000">extract&#45;msgmeta</text>
</g>
<!-- msgid3&#45;&gt;msgmeta -->
<g id="edge16" class="edge">
<title>msgid3&#45;&gt;msgmeta</title>
<path fill="none" stroke="#000000" d="M176.293,-719.8314C176.293,-712.131 176.293,-702.9743 176.293,-694.4166"/>
<polygon fill="#000000" stroke="#000000" points="179.7931,-694.4132 176.293,-684.4133 172.7931,-694.4133 179.7931,-694.4132"/>
</g>
<!-- conn2 -->
<g id="node14" class="node">
<title>conn2</title>
<ellipse fill="none" stroke="#000000" cx="258.293" cy="-1098" rx="53.8905" ry="18"/>
<text text-anchor="middle" x="258.293" y="-1094.3" font-family="Times,serif" font-size="14.00" fill="#000000">connectivity</text>
</g>
<!-- msgid4&#45;&gt;conn2 -->
<g id="edge8" class="edge">
<title>msgid4&#45;&gt;conn2</title>
<path fill="none" stroke="#000000" d="M258.293,-1151.8314C258.293,-1144.131 258.293,-1134.9743 258.293,-1126.4166"/>
<polygon fill="#000000" stroke="#000000" points="261.7931,-1126.4132 258.293,-1116.4133 254.7931,-1126.4133 261.7931,-1126.4132"/>
</g>
<!-- filter -->
<g id="node15" class="node">
<title>filter</title>
<ellipse fill="none" stroke="#000000" cx="255.293" cy="-1026" rx="72.5877" ry="18"/>
<text text-anchor="middle" x="255.293" y="-1022.3" font-family="Times,serif" font-size="14.00" fill="#000000">filter&#45;newsgroups</text>
</g>
<!-- conn2&#45;&gt;filter -->
<g id="edge9" class="edge">
<title>conn2&#45;&gt;filter</title>
<path fill="none" stroke="#000000" d="M257.5359,-1079.8314C257.2151,-1072.131 256.8336,-1062.9743 256.477,-1054.4166"/>
<polygon fill="#000000" stroke="#000000" points="259.9736,-1054.2589 256.0602,-1044.4133 252.9796,-1054.5503 259.9736,-1054.2589"/>
</g>
<!-- filter&#45;&gt;msgid1 -->
<g id="edge10" class="edge">
<title>filter&#45;&gt;msgid1</title>
<path fill="none" stroke="#000000" d="M254.0313,-1007.8314C253.4965,-1000.131 252.8606,-990.9743 252.2663,-982.4166"/>
<polygon fill="#000000" stroke="#000000" points="255.7561,-982.1467 251.5717,-972.4133 248.7729,-982.6317 255.7561,-982.1467"/>
</g>
<!-- utf8ize -->
<g id="node19" class="node">
<title>utf8ize</title>
<ellipse fill="none" stroke="#000000" cx="176.293" cy="-810" rx="35.194" ry="18"/>
<text text-anchor="middle" x="176.293" y="-806.3" font-family="Times,serif" font-size="14.00" fill="#000000">utf8ize</text>
</g>
<!-- merge&#45;&gt;utf8ize -->
<g id="edge14" class="edge">
<title>merge&#45;&gt;utf8ize</title>
<path fill="none" stroke="#000000" d="M176.293,-863.8314C176.293,-856.131 176.293,-846.9743 176.293,-838.4166"/>
<polygon fill="#000000" stroke="#000000" points="179.7931,-838.4132 176.293,-828.4133 172.7931,-838.4133 179.7931,-838.4132"/>
</g>
<!-- connectivity -->
<g id="node20" class="node">
<title>connectivity</title>
<ellipse fill="none" stroke="#000000" cx="176.293" cy="-594" rx="53.8905" ry="18"/>
<text text-anchor="middle" x="176.293" y="-590.3" font-family="Times,serif" font-size="14.00" fill="#000000">connectivity</text>
</g>
<!-- msgmeta&#45;&gt;connectivity -->
<g id="edge17" class="edge">
<title>msgmeta&#45;&gt;connectivity</title>
<path fill="none" stroke="#000000" d="M176.293,-647.8314C176.293,-640.131 176.293,-630.9743 176.293,-622.4166"/>
<polygon fill="#000000" stroke="#000000" points="179.7931,-622.4132 176.293,-612.4133 172.7931,-622.4133 179.7931,-622.4132"/>
</g>
<!-- repack -->
<g id="node18" class="node">
<title>repack</title>
<ellipse fill="none" stroke="#000000" cx="176.293" cy="-522" rx="51.1914" ry="18"/>
<text text-anchor="middle" x="176.293" y="-518.3" font-family="Times,serif" font-size="14.00" fill="#000000">repack&#45;zstd</text>
</g>
<!-- lexicon -->
<g id="node21" class="node">
<title>lexicon</title>
<ellipse fill="none" stroke="#000000" cx="176.293" cy="-450" rx="36.2938" ry="18"/>
<text text-anchor="middle" x="176.293" y="-446.3" font-family="Times,serif" font-size="14.00" fill="#000000">lexicon</text>
</g>
<!-- repack&#45;&gt;lexicon -->
<g id="edge19" class="edge">
<title>repack&#45;&gt;lexicon</title>
<path fill="none" stroke="#000000" d="M176.293,-503.8314C176.293,-496.131 176.293,-486.9743 176.293,-478.4166"/>
<polygon fill="#000000" stroke="#000000" points="179.7931,-478.4132 176.293,-468.4133 172.7931,-478.4133 179.7931,-478.4132"/>
</g>
<!-- utf8ize&#45;&gt;msgid3 -->
<g id="edge15" class="edge">
<title>utf8ize&#45;&gt;msgid3</title>
<path fill="none" stroke="#000000" d="M176.293,-791.8314C176.293,-784.131 176.293,-774.9743 176.293,-766.4166"/>
<polygon fill="#000000" stroke="#000000" points="179.7931,-766.4132 176.293,-756.4133 172.7931,-766.4133 179.7931,-766.4132"/>
</g>
<!-- connectivity&#45;&gt;repack -->
<g id="edge18" class="edge">
<title>connectivity&#45;&gt;repack</title>
<path fill="none" stroke="#000000" d="M176.293,-575.8314C176.293,-568.131 176.293,-558.9743 176.293,-550.4166"/>
<polygon fill="#000000" stroke="#000000" points="179.7931,-550.4132 176.293,-540.4133 172.7931,-550.4133 179.7931,-550.4132"/>
</g>
<!-- lexsort -->
<g id="node22" class="node">
<title>lexsort</title>
<ellipse fill="none" stroke="#000000" cx="145.293" cy="-378" rx="34.394" ry="18"/>
<text text-anchor="middle" x="145.293" y="-374.3" font-family="Times,serif" font-size="14.00" fill="#000000">lexsort</text>
</g>
<!-- lexicon&#45;&gt;lexsort -->
<g id="edge20" class="edge">
<title>lexicon&#45;&gt;lexsort</title>
<path fill="none" stroke="#000000" d="M168.63,-432.2022C165.1013,-424.0064 160.837,-414.1024 156.9242,-405.0145"/>
<polygon fill="#000000" stroke="#000000" points="160.0371,-403.3938 152.8677,-395.593 153.6077,-406.162 160.0371,-403.3938"/>
</g>
<!-- sort -->
<g id="node23" class="node">
<title>sort</title>
<ellipse fill="none" stroke="#000000" cx="120.293" cy="-306" rx="27" ry="18"/>
<text text-anchor="middle" x="120.293" y="-302.3" font-family="Times,serif" font-size="14.00" fill="#000000">sort</text>
</g>
<!-- lexsort&#45;&gt;sort -->
<g id="edge21" class="edge">
<title>lexsort&#45;&gt;sort</title>
<path fill="none" stroke="#000000" d="M139.1132,-360.2022C136.2977,-352.0936 132.9016,-342.3129 129.7738,-333.3049"/>
<polygon fill="#000000" stroke="#000000" points="132.9882,-331.8917 126.4017,-323.593 126.3755,-334.1878 132.9882,-331.8917"/>
</g>
<!-- threadify -->
<g id="node29" class="node">
<title>threadify</title>
<ellipse fill="none" stroke="#000000" cx="207.293" cy="-306" rx="42.4939" ry="18"/>
<text text-anchor="middle" x="207.293" y="-302.3" font-family="Times,serif" font-size="14.00" fill="#000000">threadify</text>
</g>
<!-- lexsort&#45;&gt;threadify -->
<g id="edge28" class="edge">
<title>lexsort&#45;&gt;threadify</title>
<path fill="none" stroke="#000000" d="M159.6728,-361.3008C167.4634,-352.2537 177.2422,-340.8977 185.9083,-330.8338"/>
<polygon fill="#000000" stroke="#000000" points="188.6875,-332.9702 192.5605,-323.1086 183.3831,-328.4025 188.6875,-332.9702"/>
</g>
<!-- lexdist -->
<g id="node24" class="node">
<title>lexdist</title>
<ellipse fill="none" stroke="#000000" cx="78.293" cy="-234" rx="34.394" ry="18"/>
<text text-anchor="middle" x="78.293" y="-230.3" font-family="Times,serif" font-size="14.00" fill="#000000">lexdist</text>
</g>
<!-- sort&#45;&gt;lexdist -->
<g id="edge22" class="edge">
<title>sort&#45;&gt;lexdist</title>
<path fill="none" stroke="#000000" d="M110.3396,-288.937C105.3394,-280.3654 99.1713,-269.7914 93.5859,-260.2165"/>
<polygon fill="#000000" stroke="#000000" points="96.5287,-258.3149 88.4667,-251.4407 90.4822,-261.842 96.5287,-258.3149"/>
</g>
<!-- verify -->
<g id="node25" class="node">
<title>verify</title>
<ellipse fill="none" stroke="#000000" cx="162.293" cy="-234" rx="31.6951" ry="18"/>
<text text-anchor="middle" x="162.293" y="-230.3" font-family="Times,serif" font-size="14.00" fill="#000000">verify</text>
</g>
<!-- sort&#45;&gt;verify -->
<g id="edge23" class="edge">
<title>sort&#45;&gt;verify</title>
<path fill="none" stroke="#000000" d="M130.2464,-288.937C135.2465,-280.3654 141.4147,-269.7914 147,-260.2165"/>
<polygon fill="#000000" stroke="#000000" points="150.1037,-261.842 152.1192,-251.4407 144.0572,-258.3149 150.1037,-261.842"/>
</g>
<!-- package -->
<g id="node26" class="node">
<title>package</title>
<ellipse fill="none" stroke="#000000" cx="78.293" cy="-162" rx="39.7935" ry="18"/>
<text text-anchor="middle" x="78.293" y="-158.3" font-family="Times,serif" font-size="14.00" fill="#000000">package</text>
</g>
<!-- lexdist&#45;&gt;package -->
<g id="edge24" class="edge">
<title>lexdist&#45;&gt;package</title>
<path fill="none" stroke="#000000" d="M78.293,-215.8314C78.293,-208.131 78.293,-198.9743 78.293,-190.4166"/>
<polygon fill="#000000" stroke="#000000" points="81.7931,-190.4132 78.293,-180.4133 74.7931,-190.4133 81.7931,-190.4132"/>
</g>
<!-- package&#45;&gt;dst1 -->
<g id="edge25" class="edge">
<title>package&#45;&gt;dst1</title>
<path fill="none" stroke="#000000" d="M78.293,-143.8314C78.293,-136.131 78.293,-126.9743 78.293,-118.4166"/>
<polygon fill="#000000" stroke="#000000" points="81.7931,-118.4132 78.293,-108.4133 74.7931,-118.4133 81.7931,-118.4132"/>
</g>
<!-- threadify&#45;&gt;lexicon -->
<g id="edge29" class="edge">
<title>threadify&#45;&gt;lexicon</title>
<path fill="none" stroke="#000000" d="M203.5637,-323.9417C199.7726,-342.115 193.7033,-371.0284 188.293,-396 186.4628,-404.4473 184.4363,-413.6293 182.5777,-421.9854"/>
<polygon fill="#000000" stroke="#000000" points="179.1026,-421.4882 180.3407,-432.0105 185.9346,-423.0128 179.1026,-421.4882"/>
</g>
</g>
</svg>
