<?xml version="1.0" encoding="UTF-8" standalone="no"?>
<!DOCTYPE svg PUBLIC "-//W3C//DTD SVG 1.1//EN"
 "http://www.w3.org/Graphics/SVG/1.1/DTD/svg11.dtd">
<!-- Generated by graphviz version 2.38.0 (20140413.2041)
 -->
<!-- Title: %3 Pages: 1 -->
<svg width="352pt" height="1412pt"
 viewBox="0.00 0.00 352.14 1412.00" xmlns="http://www.w3.org/2000/svg" xmlns:xlink="http://www.w3.org/1999/xlink">
<g id="graph0" class="graph" transform="scale(1 1) rotate(0) translate(4 1408)">
<title>%3</title>
<polygon fill="white" stroke="none" points="-4,4 -4,-1408 348.136,-1408 348.136,4 -4,4"/>
<!-- ggsrc -->
<g id="node1" class="node"><title>ggsrc</title>
<ellipse fill="none" stroke="magenta" cx="79.293" cy="-1314" rx="79.0865" ry="18"/>
<text text-anchor="middle" x="79.293" y="-1310.3" font-family="Times,serif" font-size="14.00">groups.google.com</text>
</g>
<!-- gg -->
<g id="node2" class="node"><title>gg</title>
<ellipse fill="none" stroke="black" cx="89.293" cy="-1242" rx="61.99" ry="18"/>
<text text-anchor="middle" x="89.293" y="-1238.3" font-family="Times,serif" font-size="14.00">google&#45;groups</text>
</g>
<!-- ggsrc&#45;&gt;gg -->
<g id="edge1" class="edge"><title>ggsrc&#45;&gt;gg</title>
<path fill="none" stroke="black" d="M81.7649,-1295.7C82.8669,-1287.98 84.1912,-1278.71 85.4198,-1270.11"/>
<polygon fill="black" stroke="black" points="88.9,-1270.5 86.8495,-1260.1 81.9704,-1269.51 88.9,-1270.5"/>
</g>
<!-- src2 -->
<g id="node4" class="node"><title>src2</title>
<ellipse fill="none" stroke="red" cx="94.293" cy="-1170" rx="61.99" ry="18"/>
<text text-anchor="middle" x="94.293" y="-1166.3" font-family="Times,serif" font-size="14.00">Second source</text>
</g>
<!-- gg&#45;&gt;src2 -->
<g id="edge2" class="edge"><title>gg&#45;&gt;src2</title>
<path fill="none" stroke="black" d="M90.5289,-1223.7C91.0799,-1215.98 91.7421,-1206.71 92.3564,-1198.11"/>
<polygon fill="black" stroke="black" points="95.8498,-1198.33 93.0712,-1188.1 88.8676,-1197.83 95.8498,-1198.33"/>
</g>
<!-- src1 -->
<g id="node3" class="node"><title>src1</title>
<ellipse fill="none" stroke="red" cx="260.293" cy="-1386" rx="51.9908" ry="18"/>
<text text-anchor="middle" x="260.293" y="-1382.3" font-family="Times,serif" font-size="14.00">First source</text>
</g>
<!-- mbox -->
<g id="node6" class="node"><title>mbox</title>
<ellipse fill="none" stroke="black" cx="260.293" cy="-1314" rx="83.6854" ry="18"/>
<text text-anchor="middle" x="260.293" y="-1310.3" font-family="Times,serif" font-size="14.00">import&#45;source&#45;mbox</text>
</g>
<!-- src1&#45;&gt;mbox -->
<g id="edge3" class="edge"><title>src1&#45;&gt;mbox</title>
<path fill="none" stroke="black" d="M260.293,-1367.7C260.293,-1359.98 260.293,-1350.71 260.293,-1342.11"/>
<polygon fill="black" stroke="black" points="263.793,-1342.1 260.293,-1332.1 256.793,-1342.1 263.793,-1342.1"/>
</g>
<!-- maildir -->
<g id="node7" class="node"><title>maildir</title>
<ellipse fill="none" stroke="black" cx="95.293" cy="-1098" rx="89.0842" ry="18"/>
<text text-anchor="middle" x="95.293" y="-1094.3" font-family="Times,serif" font-size="14.00">import&#45;source&#45;maildir</text>
</g>
<!-- src2&#45;&gt;maildir -->
<g id="edge4" class="edge"><title>src2&#45;&gt;maildir</title>
<path fill="none" stroke="black" d="M94.5402,-1151.7C94.6504,-1143.98 94.7828,-1134.71 94.9056,-1126.11"/>
<polygon fill="black" stroke="black" points="98.4053,-1126.15 95.0486,-1116.1 91.406,-1126.05 98.4053,-1126.15"/>
</g>
<!-- dst1 -->
<g id="node5" class="node"><title>dst1</title>
<ellipse fill="none" stroke="blue" cx="108.293" cy="-90" rx="38.9931" ry="18"/>
<text text-anchor="middle" x="108.293" y="-86.3" font-family="Times,serif" font-size="14.00">Archive</text>
</g>
<!-- query -->
<g id="node26" class="node"><title>query</title>
<ellipse fill="none" stroke="black" cx="64.293" cy="-18" rx="30.5947" ry="18"/>
<text text-anchor="middle" x="64.293" y="-14.3" font-family="Times,serif" font-size="14.00">query</text>
</g>
<!-- dst1&#45;&gt;query -->
<g id="edge25" class="edge"><title>dst1&#45;&gt;query</title>
<path fill="none" stroke="black" d="M97.8656,-72.411C92.5503,-63.9549 85.9751,-53.4944 80.0564,-44.0783"/>
<polygon fill="black" stroke="black" points="82.9305,-42.0737 74.6455,-35.4699 77.004,-45.7989 82.9305,-42.0737"/>
</g>
<!-- browser -->
<g id="node27" class="node"><title>browser</title>
<ellipse fill="none" stroke="black" cx="152.293" cy="-18" rx="38.9931" ry="18"/>
<text text-anchor="middle" x="152.293" y="-14.3" font-family="Times,serif" font-size="14.00">browser</text>
</g>
<!-- dst1&#45;&gt;browser -->
<g id="edge26" class="edge"><title>dst1&#45;&gt;browser</title>
<path fill="none" stroke="black" d="M118.72,-72.411C124.036,-63.9549 130.611,-53.4944 136.529,-44.0783"/>
<polygon fill="black" stroke="black" points="139.582,-45.7989 141.94,-35.4699 133.655,-42.0737 139.582,-45.7989"/>
</g>
<!-- kill1 -->
<g id="node8" class="node"><title>kill1</title>
<ellipse fill="none" stroke="black" cx="259.293" cy="-1242" rx="61.1893" ry="18"/>
<text text-anchor="middle" x="259.293" y="-1238.3" font-family="Times,serif" font-size="14.00">kill&#45;duplicates</text>
</g>
<!-- mbox&#45;&gt;kill1 -->
<g id="edge5" class="edge"><title>mbox&#45;&gt;kill1</title>
<path fill="none" stroke="black" d="M260.046,-1295.7C259.936,-1287.98 259.803,-1278.71 259.68,-1270.11"/>
<polygon fill="black" stroke="black" points="263.18,-1270.05 259.537,-1260.1 256.181,-1270.15 263.18,-1270.05"/>
</g>
<!-- kill2 -->
<g id="node9" class="node"><title>kill2</title>
<ellipse fill="none" stroke="black" cx="99.293" cy="-1026" rx="61.1893" ry="18"/>
<text text-anchor="middle" x="99.293" y="-1022.3" font-family="Times,serif" font-size="14.00">kill&#45;duplicates</text>
</g>
<!-- maildir&#45;&gt;kill2 -->
<g id="edge6" class="edge"><title>maildir&#45;&gt;kill2</title>
<path fill="none" stroke="black" d="M96.2817,-1079.7C96.7225,-1071.98 97.2523,-1062.71 97.7437,-1054.11"/>
<polygon fill="black" stroke="black" points="101.239,-1054.29 98.3156,-1044.1 94.2507,-1053.89 101.239,-1054.29"/>
</g>
<!-- msgid4 -->
<g id="node13" class="node"><title>msgid4</title>
<ellipse fill="none" stroke="black" cx="257.293" cy="-1170" rx="59.5901" ry="18"/>
<text text-anchor="middle" x="257.293" y="-1166.3" font-family="Times,serif" font-size="14.00">extract&#45;msgid</text>
</g>
<!-- kill1&#45;&gt;msgid4 -->
<g id="edge7" class="edge"><title>kill1&#45;&gt;msgid4</title>
<path fill="none" stroke="black" d="M258.799,-1223.7C258.578,-1215.98 258.313,-1206.71 258.068,-1198.11"/>
<polygon fill="black" stroke="black" points="261.566,-1198 257.782,-1188.1 254.569,-1198.2 261.566,-1198"/>
</g>
<!-- msgid2 -->
<g id="node11" class="node"><title>msgid2</title>
<ellipse fill="none" stroke="black" cx="107.293" cy="-954" rx="59.5901" ry="18"/>
<text text-anchor="middle" x="107.293" y="-950.3" font-family="Times,serif" font-size="14.00">extract&#45;msgid</text>
</g>
<!-- kill2&#45;&gt;msgid2 -->
<g id="edge11" class="edge"><title>kill2&#45;&gt;msgid2</title>
<path fill="none" stroke="black" d="M101.27,-1007.7C102.152,-999.983 103.212,-990.712 104.194,-982.112"/>
<polygon fill="black" stroke="black" points="107.68,-982.437 105.338,-972.104 100.725,-981.642 107.68,-982.437"/>
</g>
<!-- msgid1 -->
<g id="node10" class="node"><title>msgid1</title>
<ellipse fill="none" stroke="black" cx="249.293" cy="-954" rx="59.5901" ry="18"/>
<text text-anchor="middle" x="249.293" y="-950.3" font-family="Times,serif" font-size="14.00">extract&#45;msgid</text>
</g>
<!-- merge -->
<g id="node16" class="node"><title>merge</title>
<ellipse fill="none" stroke="black" cx="178.293" cy="-882" rx="49.2915" ry="18"/>
<text text-anchor="middle" x="178.293" y="-878.3" font-family="Times,serif" font-size="14.00">merge&#45;raw</text>
</g>
<!-- msgid1&#45;&gt;merge -->
<g id="edge12" class="edge"><title>msgid1&#45;&gt;merge</title>
<path fill="none" stroke="black" d="M232.467,-936.411C223.448,-927.519 212.181,-916.411 202.261,-906.631"/>
<polygon fill="black" stroke="black" points="204.577,-903.998 194.998,-899.47 199.662,-908.983 204.577,-903.998"/>
</g>
<!-- msgid2&#45;&gt;merge -->
<g id="edge13" class="edge"><title>msgid2&#45;&gt;merge</title>
<path fill="none" stroke="black" d="M124.119,-936.411C133.138,-927.519 144.405,-916.411 154.324,-906.631"/>
<polygon fill="black" stroke="black" points="156.924,-908.983 161.588,-899.47 152.009,-903.998 156.924,-908.983"/>
</g>
<!-- msgid3 -->
<g id="node12" class="node"><title>msgid3</title>
<ellipse fill="none" stroke="black" cx="178.293" cy="-738" rx="59.5901" ry="18"/>
<text text-anchor="middle" x="178.293" y="-734.3" font-family="Times,serif" font-size="14.00">extract&#45;msgid</text>
</g>
<!-- msgmeta -->
<g id="node17" class="node"><title>msgmeta</title>
<ellipse fill="none" stroke="black" cx="178.293" cy="-666" rx="70.3881" ry="18"/>
<text text-anchor="middle" x="178.293" y="-662.3" font-family="Times,serif" font-size="14.00">extract&#45;msgmeta</text>
</g>
<!-- msgid3&#45;&gt;msgmeta -->
<g id="edge16" class="edge"><title>msgid3&#45;&gt;msgmeta</title>
<path fill="none" stroke="black" d="M178.293,-719.697C178.293,-711.983 178.293,-702.712 178.293,-694.112"/>
<polygon fill="black" stroke="black" points="181.793,-694.104 178.293,-684.104 174.793,-694.104 181.793,-694.104"/>
</g>
<!-- conn2 -->
<g id="node14" class="node"><title>conn2</title>
<ellipse fill="none" stroke="black" cx="256.293" cy="-1098" rx="53.8905" ry="18"/>
<text text-anchor="middle" x="256.293" y="-1094.3" font-family="Times,serif" font-size="14.00">connectivity</text>
</g>
<!-- msgid4&#45;&gt;conn2 -->
<g id="edge8" class="edge"><title>msgid4&#45;&gt;conn2</title>
<path fill="none" stroke="black" d="M257.046,-1151.7C256.936,-1143.98 256.803,-1134.71 256.68,-1126.11"/>
<polygon fill="black" stroke="black" points="260.18,-1126.05 256.537,-1116.1 253.181,-1126.15 260.18,-1126.05"/>
</g>
<!-- filter -->
<g id="node15" class="node"><title>filter</title>
<ellipse fill="none" stroke="black" cx="253.293" cy="-1026" rx="72.5877" ry="18"/>
<text text-anchor="middle" x="253.293" y="-1022.3" font-family="Times,serif" font-size="14.00">filter&#45;newsgroups</text>
</g>
<!-- conn2&#45;&gt;filter -->
<g id="edge9" class="edge"><title>conn2&#45;&gt;filter</title>
<path fill="none" stroke="black" d="M255.551,-1079.7C255.221,-1071.98 254.823,-1062.71 254.455,-1054.11"/>
<polygon fill="black" stroke="black" points="257.951,-1053.95 254.026,-1044.1 250.957,-1054.25 257.951,-1053.95"/>
</g>
<!-- filter&#45;&gt;msgid1 -->
<g id="edge10" class="edge"><title>filter&#45;&gt;msgid1</title>
<path fill="none" stroke="black" d="M252.304,-1007.7C251.863,-999.983 251.334,-990.712 250.842,-982.112"/>
<polygon fill="black" stroke="black" points="254.335,-981.888 250.27,-972.104 247.347,-982.288 254.335,-981.888"/>
</g>
<!-- utf8ize -->
<g id="node19" class="node"><title>utf8ize</title>
<ellipse fill="none" stroke="black" cx="178.293" cy="-810" rx="35.194" ry="18"/>
<text text-anchor="middle" x="178.293" y="-806.3" font-family="Times,serif" font-size="14.00">utf8ize</text>
</g>
<!-- merge&#45;&gt;utf8ize -->
<g id="edge14" class="edge"><title>merge&#45;&gt;utf8ize</title>
<path fill="none" stroke="black" d="M178.293,-863.697C178.293,-855.983 178.293,-846.712 178.293,-838.112"/>
<polygon fill="black" stroke="black" points="181.793,-838.104 178.293,-828.104 174.793,-838.104 181.793,-838.104"/>
</g>
<!-- connectivity -->
<g id="node20" class="node"><title>connectivity</title>
<ellipse fill="none" stroke="black" cx="178.293" cy="-594" rx="53.8905" ry="18"/>
<text text-anchor="middle" x="178.293" y="-590.3" font-family="Times,serif" font-size="14.00">connectivity</text>
</g>
<!-- msgmeta&#45;&gt;connectivity -->
<g id="edge17" class="edge"><title>msgmeta&#45;&gt;connectivity</title>
<path fill="none" stroke="black" d="M178.293,-647.697C178.293,-639.983 178.293,-630.712 178.293,-622.112"/>
<polygon fill="black" stroke="black" points="181.793,-622.104 178.293,-612.104 174.793,-622.104 181.793,-622.104"/>
</g>
<!-- repack -->
<g id="node18" class="node"><title>repack</title>
<ellipse fill="none" stroke="black" cx="178.293" cy="-522" rx="51.1914" ry="18"/>
<text text-anchor="middle" x="178.293" y="-518.3" font-family="Times,serif" font-size="14.00">repack&#45;zstd</text>
</g>
<!-- lexicon -->
<g id="node21" class="node"><title>lexicon</title>
<ellipse fill="none" stroke="black" cx="178.293" cy="-450" rx="36.2938" ry="18"/>
<text text-anchor="middle" x="178.293" y="-446.3" font-family="Times,serif" font-size="14.00">lexicon</text>
</g>
<!-- repack&#45;&gt;lexicon -->
<g id="edge19" class="edge"><title>repack&#45;&gt;lexicon</title>
<path fill="none" stroke="black" d="M178.293,-503.697C178.293,-495.983 178.293,-486.712 178.293,-478.112"/>
<polygon fill="black" stroke="black" points="181.793,-478.104 178.293,-468.104 174.793,-478.104 181.793,-478.104"/>
</g>
<!-- utf8ize&#45;&gt;msgid3 -->
<g id="edge15" class="edge"><title>utf8ize&#45;&gt;msgid3</title>
<path fill="none" stroke="black" d="M178.293,-791.697C178.293,-783.983 178.293,-774.712 178.293,-766.112"/>
<polygon fill="black" stroke="black" points="181.793,-766.104 178.293,-756.104 174.793,-766.104 181.793,-766.104"/>
</g>
<!-- connectivity&#45;&gt;repack -->
<g id="edge18" class="edge"><title>connectivity&#45;&gt;repack</title>
<path fill="none" stroke="black" d="M178.293,-575.697C178.293,-567.983 178.293,-558.712 178.293,-550.112"/>
<polygon fill="black" stroke="black" points="181.793,-550.104 178.293,-540.104 174.793,-550.104 181.793,-550.104"/>
</g>
<!-- lexopt -->
<g id="node22" class="node"><title>lexopt</title>
<ellipse fill="none" stroke="black" cx="145.293" cy="-378" rx="32.4942" ry="18"/>
<text text-anchor="middle" x="145.293" y="-374.3" font-family="Times,serif" font-size="14.00">lexopt</text>
</g>
<!-- lexicon&#45;&gt;lexopt -->
<g id="edge20" class="edge"><title>lexicon&#45;&gt;lexopt</title>
<path fill="none" stroke="black" d="M170.472,-432.411C166.625,-424.249 161.897,-414.22 157.581,-405.065"/>
<polygon fill="black" stroke="black" points="160.717,-403.509 153.287,-395.956 154.385,-406.494 160.717,-403.509"/>
</g>
<!-- lexhash -->
<g id="node23" class="node"><title>lexhash</title>
<ellipse fill="none" stroke="black" cx="142.293" cy="-306" rx="37.8943" ry="18"/>
<text text-anchor="middle" x="142.293" y="-302.3" font-family="Times,serif" font-size="14.00">lexhash</text>
</g>
<!-- lexopt&#45;&gt;lexhash -->
<g id="edge21" class="edge"><title>lexopt&#45;&gt;lexhash</title>
<path fill="none" stroke="black" d="M144.551,-359.697C144.221,-351.983 143.823,-342.712 143.455,-334.112"/>
<polygon fill="black" stroke="black" points="146.951,-333.945 143.026,-324.104 139.957,-334.245 146.951,-333.945"/>
</g>
<!-- lexsort -->
<g id="node24" class="node"><title>lexsort</title>
<ellipse fill="none" stroke="black" cx="142.293" cy="-234" rx="34.394" ry="18"/>
<text text-anchor="middle" x="142.293" y="-230.3" font-family="Times,serif" font-size="14.00">lexsort</text>
</g>
<!-- lexhash&#45;&gt;lexsort -->
<g id="edge22" class="edge"><title>lexhash&#45;&gt;lexsort</title>
<path fill="none" stroke="black" d="M142.293,-287.697C142.293,-279.983 142.293,-270.712 142.293,-262.112"/>
<polygon fill="black" stroke="black" points="145.793,-262.104 142.293,-252.104 138.793,-262.104 145.793,-262.104"/>
</g>
<!-- package -->
<g id="node25" class="node"><title>package</title>
<ellipse fill="none" stroke="black" cx="108.293" cy="-162" rx="39.7935" ry="18"/>
<text text-anchor="middle" x="108.293" y="-158.3" font-family="Times,serif" font-size="14.00">package</text>
</g>
<!-- lexsort&#45;&gt;package -->
<g id="edge23" class="edge"><title>lexsort&#45;&gt;package</title>
<path fill="none" stroke="black" d="M134.235,-216.411C130.271,-208.249 125.4,-198.22 120.953,-189.065"/>
<polygon fill="black" stroke="black" points="124.046,-187.422 116.529,-179.956 117.75,-190.48 124.046,-187.422"/>
</g>
<!-- threadify -->
<g id="node28" class="node"><title>threadify</title>
<ellipse fill="none" stroke="black" cx="208.293" cy="-162" rx="42.4939" ry="18"/>
<text text-anchor="middle" x="208.293" y="-158.3" font-family="Times,serif" font-size="14.00">threadify</text>
</g>
<!-- lexsort&#45;&gt;threadify -->
<g id="edge27" class="edge"><title>lexsort&#45;&gt;threadify</title>
<path fill="none" stroke="black" d="M156.941,-217.465C165.535,-208.349 176.565,-196.651 186.198,-186.434"/>
<polygon fill="black" stroke="black" points="188.915,-188.654 193.229,-178.977 183.822,-183.852 188.915,-188.654"/>
</g>
<!-- package&#45;&gt;dst1 -->
<g id="edge24" class="edge"><title>package&#45;&gt;dst1</title>
<path fill="none" stroke="black" d="M108.293,-143.697C108.293,-135.983 108.293,-126.712 108.293,-118.112"/>
<polygon fill="black" stroke="black" points="111.793,-118.104 108.293,-108.104 104.793,-118.104 111.793,-118.104"/>
</g>
<!-- threadify&#45;&gt;lexicon -->
<g id="edge28" class="edge"><title>threadify&#45;&gt;lexicon</title>
<path fill="none" stroke="black" d="M206.992,-180.281C204.007,-218.984 196.156,-315.543 186.293,-396 185.258,-404.443 183.942,-413.613 182.678,-421.916"/>
<polygon fill="black" stroke="black" points="179.212,-421.428 181.129,-431.847 186.128,-422.506 179.212,-421.428"/>
</g>
</g>
</svg>
