<?xml version="1.0" encoding="UTF-8" standalone="no"?>
<!DOCTYPE svg PUBLIC "-//W3C//DTD SVG 1.1//EN"
 "http://www.w3.org/Graphics/SVG/1.1/DTD/svg11.dtd">
<!-- Generated by graphviz version 2.38.0 (20140413.2041)
 -->
<!-- Title: %3 Pages: 1 -->
<svg width="390pt" height="1412pt"
 viewBox="0.00 0.00 390.39 1412.00" xmlns="http://www.w3.org/2000/svg" xmlns:xlink="http://www.w3.org/1999/xlink">
<g id="graph0" class="graph" transform="scale(1 1) rotate(0) translate(4 1408)">
<title>%3</title>
<polygon fill="white" stroke="none" points="-4,4 -4,-1408 386.39,-1408 386.39,4 -4,4"/>
<!-- ggsrc -->
<g id="node1" class="node"><title>ggsrc</title>
<ellipse fill="none" stroke="magenta" cx="117.547" cy="-1314" rx="79.0865" ry="18"/>
<text text-anchor="middle" x="117.547" y="-1310.3" font-family="Times,serif" font-size="14.00">groups.google.com</text>
</g>
<!-- gg -->
<g id="node2" class="node"><title>gg</title>
<ellipse fill="none" stroke="black" cx="127.547" cy="-1242" rx="61.99" ry="18"/>
<text text-anchor="middle" x="127.547" y="-1238.3" font-family="Times,serif" font-size="14.00">google&#45;groups</text>
</g>
<!-- ggsrc&#45;&gt;gg -->
<g id="edge1" class="edge"><title>ggsrc&#45;&gt;gg</title>
<path fill="none" stroke="black" d="M120.019,-1295.7C121.121,-1287.98 122.446,-1278.71 123.674,-1270.11"/>
<polygon fill="black" stroke="black" points="127.154,-1270.5 125.104,-1260.1 120.225,-1269.51 127.154,-1270.5"/>
</g>
<!-- src2 -->
<g id="node4" class="node"><title>src2</title>
<ellipse fill="none" stroke="red" cx="132.547" cy="-1170" rx="61.99" ry="18"/>
<text text-anchor="middle" x="132.547" y="-1166.3" font-family="Times,serif" font-size="14.00">Second source</text>
</g>
<!-- gg&#45;&gt;src2 -->
<g id="edge2" class="edge"><title>gg&#45;&gt;src2</title>
<path fill="none" stroke="black" d="M128.783,-1223.7C129.334,-1215.98 129.996,-1206.71 130.611,-1198.11"/>
<polygon fill="black" stroke="black" points="134.104,-1198.33 131.326,-1188.1 127.122,-1197.83 134.104,-1198.33"/>
</g>
<!-- src1 -->
<g id="node3" class="node"><title>src1</title>
<ellipse fill="none" stroke="red" cx="298.547" cy="-1386" rx="51.9908" ry="18"/>
<text text-anchor="middle" x="298.547" y="-1382.3" font-family="Times,serif" font-size="14.00">First source</text>
</g>
<!-- mbox -->
<g id="node6" class="node"><title>mbox</title>
<ellipse fill="none" stroke="black" cx="298.547" cy="-1314" rx="83.6854" ry="18"/>
<text text-anchor="middle" x="298.547" y="-1310.3" font-family="Times,serif" font-size="14.00">import&#45;source&#45;mbox</text>
</g>
<!-- src1&#45;&gt;mbox -->
<g id="edge3" class="edge"><title>src1&#45;&gt;mbox</title>
<path fill="none" stroke="black" d="M298.547,-1367.7C298.547,-1359.98 298.547,-1350.71 298.547,-1342.11"/>
<polygon fill="black" stroke="black" points="302.047,-1342.1 298.547,-1332.1 295.047,-1342.1 302.047,-1342.1"/>
</g>
<!-- maildir -->
<g id="node7" class="node"><title>maildir</title>
<ellipse fill="none" stroke="black" cx="133.547" cy="-1098" rx="89.0842" ry="18"/>
<text text-anchor="middle" x="133.547" y="-1094.3" font-family="Times,serif" font-size="14.00">import&#45;source&#45;maildir</text>
</g>
<!-- src2&#45;&gt;maildir -->
<g id="edge4" class="edge"><title>src2&#45;&gt;maildir</title>
<path fill="none" stroke="black" d="M132.794,-1151.7C132.905,-1143.98 133.037,-1134.71 133.16,-1126.11"/>
<polygon fill="black" stroke="black" points="136.66,-1126.15 133.303,-1116.1 129.66,-1126.05 136.66,-1126.15"/>
</g>
<!-- dst1 -->
<g id="node5" class="node"><title>dst1</title>
<ellipse fill="none" stroke="blue" cx="74.5473" cy="-90" rx="38.9931" ry="18"/>
<text text-anchor="middle" x="74.5473" y="-86.3" font-family="Times,serif" font-size="14.00">Archive</text>
</g>
<!-- query -->
<g id="node26" class="node"><title>query</title>
<ellipse fill="none" stroke="black" cx="30.5473" cy="-18" rx="30.5947" ry="18"/>
<text text-anchor="middle" x="30.5473" y="-14.3" font-family="Times,serif" font-size="14.00">query</text>
</g>
<!-- dst1&#45;&gt;query -->
<g id="edge25" class="edge"><title>dst1&#45;&gt;query</title>
<path fill="none" stroke="black" d="M64.1199,-72.411C58.8046,-63.9549 52.2295,-53.4944 46.3108,-44.0783"/>
<polygon fill="black" stroke="black" points="49.1848,-42.0737 40.8998,-35.4699 43.2584,-45.7989 49.1848,-42.0737"/>
</g>
<!-- browser -->
<g id="node27" class="node"><title>browser</title>
<ellipse fill="none" stroke="black" cx="118.547" cy="-18" rx="38.9931" ry="18"/>
<text text-anchor="middle" x="118.547" y="-14.3" font-family="Times,serif" font-size="14.00">browser</text>
</g>
<!-- dst1&#45;&gt;browser -->
<g id="edge26" class="edge"><title>dst1&#45;&gt;browser</title>
<path fill="none" stroke="black" d="M84.9747,-72.411C90.2899,-63.9549 96.8651,-53.4944 102.784,-44.0783"/>
<polygon fill="black" stroke="black" points="105.836,-45.7989 108.195,-35.4699 99.9098,-42.0737 105.836,-45.7989"/>
</g>
<!-- kill1 -->
<g id="node8" class="node"><title>kill1</title>
<ellipse fill="none" stroke="black" cx="297.547" cy="-1242" rx="61.1893" ry="18"/>
<text text-anchor="middle" x="297.547" y="-1238.3" font-family="Times,serif" font-size="14.00">kill&#45;duplicates</text>
</g>
<!-- mbox&#45;&gt;kill1 -->
<g id="edge5" class="edge"><title>mbox&#45;&gt;kill1</title>
<path fill="none" stroke="black" d="M298.3,-1295.7C298.19,-1287.98 298.057,-1278.71 297.935,-1270.11"/>
<polygon fill="black" stroke="black" points="301.434,-1270.05 297.792,-1260.1 294.435,-1270.15 301.434,-1270.05"/>
</g>
<!-- kill2 -->
<g id="node9" class="node"><title>kill2</title>
<ellipse fill="none" stroke="black" cx="137.547" cy="-1026" rx="61.1893" ry="18"/>
<text text-anchor="middle" x="137.547" y="-1022.3" font-family="Times,serif" font-size="14.00">kill&#45;duplicates</text>
</g>
<!-- maildir&#45;&gt;kill2 -->
<g id="edge6" class="edge"><title>maildir&#45;&gt;kill2</title>
<path fill="none" stroke="black" d="M134.536,-1079.7C134.977,-1071.98 135.507,-1062.71 135.998,-1054.11"/>
<polygon fill="black" stroke="black" points="139.494,-1054.29 136.57,-1044.1 132.505,-1053.89 139.494,-1054.29"/>
</g>
<!-- msgid4 -->
<g id="node13" class="node"><title>msgid4</title>
<ellipse fill="none" stroke="black" cx="295.547" cy="-1170" rx="59.5901" ry="18"/>
<text text-anchor="middle" x="295.547" y="-1166.3" font-family="Times,serif" font-size="14.00">extract&#45;msgid</text>
</g>
<!-- kill1&#45;&gt;msgid4 -->
<g id="edge7" class="edge"><title>kill1&#45;&gt;msgid4</title>
<path fill="none" stroke="black" d="M297.053,-1223.7C296.833,-1215.98 296.568,-1206.71 296.322,-1198.11"/>
<polygon fill="black" stroke="black" points="299.82,-1198 296.036,-1188.1 292.823,-1198.2 299.82,-1198"/>
</g>
<!-- msgid2 -->
<g id="node11" class="node"><title>msgid2</title>
<ellipse fill="none" stroke="black" cx="145.547" cy="-954" rx="59.5901" ry="18"/>
<text text-anchor="middle" x="145.547" y="-950.3" font-family="Times,serif" font-size="14.00">extract&#45;msgid</text>
</g>
<!-- kill2&#45;&gt;msgid2 -->
<g id="edge11" class="edge"><title>kill2&#45;&gt;msgid2</title>
<path fill="none" stroke="black" d="M139.525,-1007.7C140.406,-999.983 141.466,-990.712 142.449,-982.112"/>
<polygon fill="black" stroke="black" points="145.934,-982.437 143.593,-972.104 138.98,-981.642 145.934,-982.437"/>
</g>
<!-- msgid1 -->
<g id="node10" class="node"><title>msgid1</title>
<ellipse fill="none" stroke="black" cx="287.547" cy="-954" rx="59.5901" ry="18"/>
<text text-anchor="middle" x="287.547" y="-950.3" font-family="Times,serif" font-size="14.00">extract&#45;msgid</text>
</g>
<!-- merge -->
<g id="node16" class="node"><title>merge</title>
<ellipse fill="none" stroke="black" cx="216.547" cy="-882" rx="49.2915" ry="18"/>
<text text-anchor="middle" x="216.547" y="-878.3" font-family="Times,serif" font-size="14.00">merge&#45;raw</text>
</g>
<!-- msgid1&#45;&gt;merge -->
<g id="edge12" class="edge"><title>msgid1&#45;&gt;merge</title>
<path fill="none" stroke="black" d="M270.721,-936.411C261.702,-927.519 250.435,-916.411 240.516,-906.631"/>
<polygon fill="black" stroke="black" points="242.831,-903.998 233.253,-899.47 237.916,-908.983 242.831,-903.998"/>
</g>
<!-- msgid2&#45;&gt;merge -->
<g id="edge13" class="edge"><title>msgid2&#45;&gt;merge</title>
<path fill="none" stroke="black" d="M162.373,-936.411C171.392,-927.519 182.659,-916.411 192.579,-906.631"/>
<polygon fill="black" stroke="black" points="195.178,-908.983 199.842,-899.47 190.264,-903.998 195.178,-908.983"/>
</g>
<!-- msgid3 -->
<g id="node12" class="node"><title>msgid3</title>
<ellipse fill="none" stroke="black" cx="216.547" cy="-738" rx="59.5901" ry="18"/>
<text text-anchor="middle" x="216.547" y="-734.3" font-family="Times,serif" font-size="14.00">extract&#45;msgid</text>
</g>
<!-- msgmeta -->
<g id="node17" class="node"><title>msgmeta</title>
<ellipse fill="none" stroke="black" cx="216.547" cy="-666" rx="70.3881" ry="18"/>
<text text-anchor="middle" x="216.547" y="-662.3" font-family="Times,serif" font-size="14.00">extract&#45;msgmeta</text>
</g>
<!-- msgid3&#45;&gt;msgmeta -->
<g id="edge16" class="edge"><title>msgid3&#45;&gt;msgmeta</title>
<path fill="none" stroke="black" d="M216.547,-719.697C216.547,-711.983 216.547,-702.712 216.547,-694.112"/>
<polygon fill="black" stroke="black" points="220.047,-694.104 216.547,-684.104 213.047,-694.104 220.047,-694.104"/>
</g>
<!-- conn2 -->
<g id="node14" class="node"><title>conn2</title>
<ellipse fill="none" stroke="black" cx="294.547" cy="-1098" rx="53.8905" ry="18"/>
<text text-anchor="middle" x="294.547" y="-1094.3" font-family="Times,serif" font-size="14.00">connectivity</text>
</g>
<!-- msgid4&#45;&gt;conn2 -->
<g id="edge8" class="edge"><title>msgid4&#45;&gt;conn2</title>
<path fill="none" stroke="black" d="M295.3,-1151.7C295.19,-1143.98 295.057,-1134.71 294.935,-1126.11"/>
<polygon fill="black" stroke="black" points="298.434,-1126.05 294.792,-1116.1 291.435,-1126.15 298.434,-1126.05"/>
</g>
<!-- filter -->
<g id="node15" class="node"><title>filter</title>
<ellipse fill="none" stroke="black" cx="291.547" cy="-1026" rx="72.5877" ry="18"/>
<text text-anchor="middle" x="291.547" y="-1022.3" font-family="Times,serif" font-size="14.00">filter&#45;newsgroups</text>
</g>
<!-- conn2&#45;&gt;filter -->
<g id="edge9" class="edge"><title>conn2&#45;&gt;filter</title>
<path fill="none" stroke="black" d="M293.806,-1079.7C293.475,-1071.98 293.078,-1062.71 292.709,-1054.11"/>
<polygon fill="black" stroke="black" points="296.205,-1053.95 292.28,-1044.1 289.212,-1054.25 296.205,-1053.95"/>
</g>
<!-- filter&#45;&gt;msgid1 -->
<g id="edge10" class="edge"><title>filter&#45;&gt;msgid1</title>
<path fill="none" stroke="black" d="M290.559,-1007.7C290.118,-999.983 289.588,-990.712 289.097,-982.112"/>
<polygon fill="black" stroke="black" points="292.59,-981.888 288.525,-972.104 285.601,-982.288 292.59,-981.888"/>
</g>
<!-- utf8ize -->
<g id="node19" class="node"><title>utf8ize</title>
<ellipse fill="none" stroke="black" cx="216.547" cy="-810" rx="35.194" ry="18"/>
<text text-anchor="middle" x="216.547" y="-806.3" font-family="Times,serif" font-size="14.00">utf8ize</text>
</g>
<!-- merge&#45;&gt;utf8ize -->
<g id="edge14" class="edge"><title>merge&#45;&gt;utf8ize</title>
<path fill="none" stroke="black" d="M216.547,-863.697C216.547,-855.983 216.547,-846.712 216.547,-838.112"/>
<polygon fill="black" stroke="black" points="220.047,-838.104 216.547,-828.104 213.047,-838.104 220.047,-838.104"/>
</g>
<!-- connectivity -->
<g id="node20" class="node"><title>connectivity</title>
<ellipse fill="none" stroke="black" cx="216.547" cy="-594" rx="53.8905" ry="18"/>
<text text-anchor="middle" x="216.547" y="-590.3" font-family="Times,serif" font-size="14.00">connectivity</text>
</g>
<!-- msgmeta&#45;&gt;connectivity -->
<g id="edge17" class="edge"><title>msgmeta&#45;&gt;connectivity</title>
<path fill="none" stroke="black" d="M216.547,-647.697C216.547,-639.983 216.547,-630.712 216.547,-622.112"/>
<polygon fill="black" stroke="black" points="220.047,-622.104 216.547,-612.104 213.047,-622.104 220.047,-622.104"/>
</g>
<!-- repack -->
<g id="node18" class="node"><title>repack</title>
<ellipse fill="none" stroke="black" cx="216.547" cy="-522" rx="51.1914" ry="18"/>
<text text-anchor="middle" x="216.547" y="-518.3" font-family="Times,serif" font-size="14.00">repack&#45;zstd</text>
</g>
<!-- lexicon -->
<g id="node21" class="node"><title>lexicon</title>
<ellipse fill="none" stroke="black" cx="216.547" cy="-450" rx="36.2938" ry="18"/>
<text text-anchor="middle" x="216.547" y="-446.3" font-family="Times,serif" font-size="14.00">lexicon</text>
</g>
<!-- repack&#45;&gt;lexicon -->
<g id="edge19" class="edge"><title>repack&#45;&gt;lexicon</title>
<path fill="none" stroke="black" d="M216.547,-503.697C216.547,-495.983 216.547,-486.712 216.547,-478.112"/>
<polygon fill="black" stroke="black" points="220.047,-478.104 216.547,-468.104 213.047,-478.104 220.047,-478.104"/>
</g>
<!-- utf8ize&#45;&gt;msgid3 -->
<g id="edge15" class="edge"><title>utf8ize&#45;&gt;msgid3</title>
<path fill="none" stroke="black" d="M216.547,-791.697C216.547,-783.983 216.547,-774.712 216.547,-766.112"/>
<polygon fill="black" stroke="black" points="220.047,-766.104 216.547,-756.104 213.047,-766.104 220.047,-766.104"/>
</g>
<!-- connectivity&#45;&gt;repack -->
<g id="edge18" class="edge"><title>connectivity&#45;&gt;repack</title>
<path fill="none" stroke="black" d="M216.547,-575.697C216.547,-567.983 216.547,-558.712 216.547,-550.112"/>
<polygon fill="black" stroke="black" points="220.047,-550.104 216.547,-540.104 213.047,-550.104 220.047,-550.104"/>
</g>
<!-- lexopt -->
<g id="node22" class="node"><title>lexopt</title>
<ellipse fill="none" stroke="black" cx="181.547" cy="-378" rx="32.4942" ry="18"/>
<text text-anchor="middle" x="181.547" y="-374.3" font-family="Times,serif" font-size="14.00">lexopt</text>
</g>
<!-- lexicon&#45;&gt;lexopt -->
<g id="edge20" class="edge"><title>lexicon&#45;&gt;lexopt</title>
<path fill="none" stroke="black" d="M208.253,-432.411C204.112,-424.129 199.01,-413.925 194.378,-404.662"/>
<polygon fill="black" stroke="black" points="197.385,-402.849 189.782,-395.47 191.124,-405.979 197.385,-402.849"/>
</g>
<!-- lexhash -->
<g id="node23" class="node"><title>lexhash</title>
<ellipse fill="none" stroke="black" cx="176.547" cy="-306" rx="37.8943" ry="18"/>
<text text-anchor="middle" x="176.547" y="-302.3" font-family="Times,serif" font-size="14.00">lexhash</text>
</g>
<!-- lexopt&#45;&gt;lexhash -->
<g id="edge21" class="edge"><title>lexopt&#45;&gt;lexhash</title>
<path fill="none" stroke="black" d="M180.311,-359.697C179.76,-351.983 179.098,-342.712 178.484,-334.112"/>
<polygon fill="black" stroke="black" points="181.973,-333.83 177.769,-324.104 174.99,-334.328 181.973,-333.83"/>
</g>
<!-- lexsort -->
<g id="node24" class="node"><title>lexsort</title>
<ellipse fill="none" stroke="black" cx="174.547" cy="-234" rx="34.394" ry="18"/>
<text text-anchor="middle" x="174.547" y="-230.3" font-family="Times,serif" font-size="14.00">lexsort</text>
</g>
<!-- lexhash&#45;&gt;lexsort -->
<g id="edge22" class="edge"><title>lexhash&#45;&gt;lexsort</title>
<path fill="none" stroke="black" d="M176.053,-287.697C175.833,-279.983 175.568,-270.712 175.322,-262.112"/>
<polygon fill="black" stroke="black" points="178.82,-262 175.036,-252.104 171.823,-262.2 178.82,-262"/>
</g>
<!-- package -->
<g id="node25" class="node"><title>package</title>
<ellipse fill="none" stroke="black" cx="74.5473" cy="-162" rx="39.7935" ry="18"/>
<text text-anchor="middle" x="74.5473" y="-158.3" font-family="Times,serif" font-size="14.00">package</text>
</g>
<!-- lexsort&#45;&gt;package -->
<g id="edge23" class="edge"><title>lexsort&#45;&gt;package</title>
<path fill="none" stroke="black" d="M154.791,-219.17C140.152,-208.923 119.974,-194.799 103.515,-183.277"/>
<polygon fill="black" stroke="black" points="105.495,-180.391 95.2958,-177.524 101.481,-186.126 105.495,-180.391"/>
</g>
<!-- threadify -->
<g id="node28" class="node"><title>threadify</title>
<ellipse fill="none" stroke="black" cx="174.547" cy="-162" rx="42.4939" ry="18"/>
<text text-anchor="middle" x="174.547" y="-158.3" font-family="Times,serif" font-size="14.00">threadify</text>
</g>
<!-- lexsort&#45;&gt;threadify -->
<g id="edge27" class="edge"><title>lexsort&#45;&gt;threadify</title>
<path fill="none" stroke="black" d="M174.547,-215.697C174.547,-207.983 174.547,-198.712 174.547,-190.112"/>
<polygon fill="black" stroke="black" points="178.047,-190.104 174.547,-180.104 171.047,-190.104 178.047,-190.104"/>
</g>
<!-- package&#45;&gt;dst1 -->
<g id="edge24" class="edge"><title>package&#45;&gt;dst1</title>
<path fill="none" stroke="black" d="M74.5473,-143.697C74.5473,-135.983 74.5473,-126.712 74.5473,-118.112"/>
<polygon fill="black" stroke="black" points="78.0474,-118.104 74.5473,-108.104 71.0474,-118.104 78.0474,-118.104"/>
</g>
<!-- sort -->
<g id="node29" class="node"><title>sort</title>
<ellipse fill="none" stroke="black" cx="209.547" cy="-90" rx="27" ry="18"/>
<text text-anchor="middle" x="209.547" y="-86.3" font-family="Times,serif" font-size="14.00">sort</text>
</g>
<!-- threadify&#45;&gt;sort -->
<g id="edge28" class="edge"><title>threadify&#45;&gt;sort</title>
<path fill="none" stroke="black" d="M183.02,-144.055C187.164,-135.767 192.238,-125.618 196.835,-116.424"/>
<polygon fill="black" stroke="black" points="200.052,-117.817 201.394,-107.307 193.791,-114.686 200.052,-117.817"/>
</g>
<!-- sort&#45;&gt;lexicon -->
<g id="edge29" class="edge"><title>sort&#45;&gt;lexicon</title>
<path fill="none" stroke="black" d="M216.462,-107.72C226.662,-133.938 244.547,-186.535 244.547,-233 244.547,-307 244.547,-307 244.547,-307 244.547,-347.774 233.297,-393.911 225.059,-422.23"/>
<polygon fill="black" stroke="black" points="221.601,-421.579 222.079,-432.163 228.305,-423.59 221.601,-421.579"/>
</g>
</g>
</svg>
