<?xml version="1.0" encoding="UTF-8" standalone="no"?>
<!DOCTYPE svg PUBLIC "-//W3C//DTD SVG 1.1//EN"
 "http://www.w3.org/Graphics/SVG/1.1/DTD/svg11.dtd">
<!-- Generated by graphviz version 2.38.0 (20140413.2041)
 -->
<!-- Title: %3 Pages: 1 -->
<svg width="380pt" height="836pt"
 viewBox="0.00 0.00 379.78 836.00" xmlns="http://www.w3.org/2000/svg" xmlns:xlink="http://www.w3.org/1999/xlink">
<g id="graph0" class="graph" transform="scale(1 1) rotate(0) translate(4 832)">
<title>%3</title>
<polygon fill="white" stroke="none" points="-4,4 -4,-832 375.784,-832 375.784,4 -4,4"/>
<!-- src1 -->
<g id="node1" class="node"><title>src1</title>
<ellipse fill="none" stroke="red" cx="85.7924" cy="-810" rx="53.8905" ry="18"/>
<text text-anchor="middle" x="85.7924" y="-806.3" font-family="Times,serif" font-size="14.00">First source</text>
</g>
<!-- mbox -->
<g id="node4" class="node"><title>mbox</title>
<ellipse fill="none" stroke="black" cx="85.7924" cy="-738" rx="85.5853" ry="18"/>
<text text-anchor="middle" x="85.7924" y="-734.3" font-family="Times,serif" font-size="14.00">import&#45;source&#45;mbox</text>
</g>
<!-- src1&#45;&gt;mbox -->
<g id="edge1" class="edge"><title>src1&#45;&gt;mbox</title>
<path fill="none" stroke="black" d="M85.7924,-791.697C85.7924,-783.983 85.7924,-774.712 85.7924,-766.112"/>
<polygon fill="black" stroke="black" points="89.2925,-766.104 85.7924,-756.104 82.2925,-766.104 89.2925,-766.104"/>
</g>
<!-- src2 -->
<g id="node2" class="node"><title>src2</title>
<ellipse fill="none" stroke="red" cx="280.792" cy="-810" rx="65.7887" ry="18"/>
<text text-anchor="middle" x="280.792" y="-806.3" font-family="Times,serif" font-size="14.00">Second source</text>
</g>
<!-- slrnpull -->
<g id="node5" class="node"><title>slrnpull</title>
<ellipse fill="none" stroke="black" cx="280.792" cy="-738" rx="90.9839" ry="18"/>
<text text-anchor="middle" x="280.792" y="-734.3" font-family="Times,serif" font-size="14.00">import&#45;source&#45;slrnpull</text>
</g>
<!-- src2&#45;&gt;slrnpull -->
<g id="edge2" class="edge"><title>src2&#45;&gt;slrnpull</title>
<path fill="none" stroke="black" d="M280.792,-791.697C280.792,-783.983 280.792,-774.712 280.792,-766.112"/>
<polygon fill="black" stroke="black" points="284.292,-766.104 280.792,-756.104 277.292,-766.104 284.292,-766.104"/>
</g>
<!-- dst1 -->
<g id="node3" class="node"><title>dst1</title>
<ellipse fill="none" stroke="blue" cx="191.792" cy="-90" rx="38.9931" ry="18"/>
<text text-anchor="middle" x="191.792" y="-86.3" font-family="Times,serif" font-size="14.00">Archive</text>
</g>
<!-- query -->
<g id="node16" class="node"><title>query</title>
<ellipse fill="none" stroke="black" cx="147.792" cy="-18" rx="31.3957" ry="18"/>
<text text-anchor="middle" x="147.792" y="-14.3" font-family="Times,serif" font-size="14.00">query</text>
</g>
<!-- dst1&#45;&gt;query -->
<g id="edge15" class="edge"><title>dst1&#45;&gt;query</title>
<path fill="none" stroke="black" d="M181.365,-72.411C176.05,-63.9549 169.475,-53.4944 163.556,-44.0783"/>
<polygon fill="black" stroke="black" points="166.43,-42.0737 158.145,-35.4699 160.503,-45.7989 166.43,-42.0737"/>
</g>
<!-- browser -->
<g id="node17" class="node"><title>browser</title>
<ellipse fill="none" stroke="black" cx="236.792" cy="-18" rx="40.0939" ry="18"/>
<text text-anchor="middle" x="236.792" y="-14.3" font-family="Times,serif" font-size="14.00">browser</text>
</g>
<!-- dst1&#45;&gt;browser -->
<g id="edge16" class="edge"><title>dst1&#45;&gt;browser</title>
<path fill="none" stroke="black" d="M202.457,-72.411C207.893,-63.9549 214.617,-53.4944 220.671,-44.0783"/>
<polygon fill="black" stroke="black" points="223.741,-45.7744 226.205,-35.4699 217.853,-41.9891 223.741,-45.7744"/>
</g>
<!-- kill1 -->
<g id="node6" class="node"><title>kill1</title>
<ellipse fill="none" stroke="black" cx="113.792" cy="-666" rx="60.3893" ry="18"/>
<text text-anchor="middle" x="113.792" y="-662.3" font-family="Times,serif" font-size="14.00">kill&#45;duplicates</text>
</g>
<!-- mbox&#45;&gt;kill1 -->
<g id="edge3" class="edge"><title>mbox&#45;&gt;kill1</title>
<path fill="none" stroke="black" d="M92.5704,-720.055C95.7219,-712.176 99.5458,-702.617 103.075,-693.794"/>
<polygon fill="black" stroke="black" points="106.418,-694.86 106.882,-684.275 99.9186,-692.26 106.418,-694.86"/>
</g>
<!-- kill2 -->
<g id="node7" class="node"><title>kill2</title>
<ellipse fill="none" stroke="black" cx="266.792" cy="-666" rx="60.3893" ry="18"/>
<text text-anchor="middle" x="266.792" y="-662.3" font-family="Times,serif" font-size="14.00">kill&#45;duplicates</text>
</g>
<!-- slrnpull&#45;&gt;kill2 -->
<g id="edge4" class="edge"><title>slrnpull&#45;&gt;kill2</title>
<path fill="none" stroke="black" d="M277.332,-719.697C275.789,-711.983 273.935,-702.712 272.215,-694.112"/>
<polygon fill="black" stroke="black" points="275.607,-693.224 270.213,-684.104 268.742,-694.597 275.607,-693.224"/>
</g>
<!-- msgid1 -->
<g id="node8" class="node"><title>msgid1</title>
<ellipse fill="none" stroke="black" cx="120.792" cy="-594" rx="59.5901" ry="18"/>
<text text-anchor="middle" x="120.792" y="-590.3" font-family="Times,serif" font-size="14.00">extract&#45;msgid</text>
</g>
<!-- kill1&#45;&gt;msgid1 -->
<g id="edge5" class="edge"><title>kill1&#45;&gt;msgid1</title>
<path fill="none" stroke="black" d="M115.523,-647.697C116.294,-639.983 117.221,-630.712 118.081,-622.112"/>
<polygon fill="black" stroke="black" points="121.569,-622.403 119.082,-612.104 114.604,-621.706 121.569,-622.403"/>
</g>
<!-- msgid2 -->
<g id="node9" class="node"><title>msgid2</title>
<ellipse fill="none" stroke="black" cx="262.792" cy="-594" rx="59.5901" ry="18"/>
<text text-anchor="middle" x="262.792" y="-590.3" font-family="Times,serif" font-size="14.00">extract&#45;msgid</text>
</g>
<!-- kill2&#45;&gt;msgid2 -->
<g id="edge6" class="edge"><title>kill2&#45;&gt;msgid2</title>
<path fill="none" stroke="black" d="M265.804,-647.697C265.363,-639.983 264.833,-630.712 264.342,-622.112"/>
<polygon fill="black" stroke="black" points="267.835,-621.888 263.77,-612.104 260.846,-622.288 267.835,-621.888"/>
</g>
<!-- merge -->
<g id="node11" class="node"><title>merge</title>
<ellipse fill="none" stroke="black" cx="191.792" cy="-522" rx="48.9926" ry="18"/>
<text text-anchor="middle" x="191.792" y="-518.3" font-family="Times,serif" font-size="14.00">merge&#45;raw</text>
</g>
<!-- msgid1&#45;&gt;merge -->
<g id="edge7" class="edge"><title>msgid1&#45;&gt;merge</title>
<path fill="none" stroke="black" d="M137.618,-576.411C146.768,-567.39 158.231,-556.088 168.254,-546.207"/>
<polygon fill="black" stroke="black" points="170.912,-548.501 175.576,-538.988 165.998,-543.517 170.912,-548.501"/>
</g>
<!-- msgid2&#45;&gt;merge -->
<g id="edge8" class="edge"><title>msgid2&#45;&gt;merge</title>
<path fill="none" stroke="black" d="M245.966,-576.411C236.817,-567.39 225.353,-556.088 215.33,-546.207"/>
<polygon fill="black" stroke="black" points="217.587,-543.517 208.009,-538.988 212.673,-548.501 217.587,-543.517"/>
</g>
<!-- msgid3 -->
<g id="node10" class="node"><title>msgid3</title>
<ellipse fill="none" stroke="black" cx="191.792" cy="-378" rx="59.5901" ry="18"/>
<text text-anchor="middle" x="191.792" y="-374.3" font-family="Times,serif" font-size="14.00">extract&#45;msgid</text>
</g>
<!-- msgmeta -->
<g id="node12" class="node"><title>msgmeta</title>
<ellipse fill="none" stroke="black" cx="191.792" cy="-306" rx="70.3881" ry="18"/>
<text text-anchor="middle" x="191.792" y="-302.3" font-family="Times,serif" font-size="14.00">extract&#45;msgmeta</text>
</g>
<!-- msgid3&#45;&gt;msgmeta -->
<g id="edge11" class="edge"><title>msgid3&#45;&gt;msgmeta</title>
<path fill="none" stroke="black" d="M191.792,-359.697C191.792,-351.983 191.792,-342.712 191.792,-334.112"/>
<polygon fill="black" stroke="black" points="195.292,-334.104 191.792,-324.104 188.292,-334.104 195.292,-334.104"/>
</g>
<!-- utf8ize -->
<g id="node14" class="node"><title>utf8ize</title>
<ellipse fill="none" stroke="black" cx="191.792" cy="-450" rx="34.394" ry="18"/>
<text text-anchor="middle" x="191.792" y="-446.3" font-family="Times,serif" font-size="14.00">utf8ize</text>
</g>
<!-- merge&#45;&gt;utf8ize -->
<g id="edge9" class="edge"><title>merge&#45;&gt;utf8ize</title>
<path fill="none" stroke="black" d="M191.792,-503.697C191.792,-495.983 191.792,-486.712 191.792,-478.112"/>
<polygon fill="black" stroke="black" points="195.292,-478.104 191.792,-468.104 188.292,-478.104 195.292,-478.104"/>
</g>
<!-- connectivity -->
<g id="node15" class="node"><title>connectivity</title>
<ellipse fill="none" stroke="black" cx="191.792" cy="-234" rx="54.6905" ry="18"/>
<text text-anchor="middle" x="191.792" y="-230.3" font-family="Times,serif" font-size="14.00">connectivity</text>
</g>
<!-- msgmeta&#45;&gt;connectivity -->
<g id="edge12" class="edge"><title>msgmeta&#45;&gt;connectivity</title>
<path fill="none" stroke="black" d="M191.792,-287.697C191.792,-279.983 191.792,-270.712 191.792,-262.112"/>
<polygon fill="black" stroke="black" points="195.292,-262.104 191.792,-252.104 188.292,-262.104 195.292,-262.104"/>
</g>
<!-- repack -->
<g id="node13" class="node"><title>repack</title>
<ellipse fill="none" stroke="black" cx="191.792" cy="-162" rx="53.0913" ry="18"/>
<text text-anchor="middle" x="191.792" y="-158.3" font-family="Times,serif" font-size="14.00">repack&#45;zstd</text>
</g>
<!-- repack&#45;&gt;dst1 -->
<g id="edge14" class="edge"><title>repack&#45;&gt;dst1</title>
<path fill="none" stroke="black" d="M191.792,-143.697C191.792,-135.983 191.792,-126.712 191.792,-118.112"/>
<polygon fill="black" stroke="black" points="195.292,-118.104 191.792,-108.104 188.292,-118.104 195.292,-118.104"/>
</g>
<!-- utf8ize&#45;&gt;msgid3 -->
<g id="edge10" class="edge"><title>utf8ize&#45;&gt;msgid3</title>
<path fill="none" stroke="black" d="M191.792,-431.697C191.792,-423.983 191.792,-414.712 191.792,-406.112"/>
<polygon fill="black" stroke="black" points="195.292,-406.104 191.792,-396.104 188.292,-406.104 195.292,-406.104"/>
</g>
<!-- connectivity&#45;&gt;repack -->
<g id="edge13" class="edge"><title>connectivity&#45;&gt;repack</title>
<path fill="none" stroke="black" d="M191.792,-215.697C191.792,-207.983 191.792,-198.712 191.792,-190.112"/>
<polygon fill="black" stroke="black" points="195.292,-190.104 191.792,-180.104 188.292,-190.104 195.292,-190.104"/>
</g>
</g>
</svg>
